ISO-10303-21;
HEADER;
/* Generated by software containing ST-Developer
 * from STEP Tools, Inc. (www.steptools.com) 
 */

FILE_DESCRIPTION(
/* description */ (''),
/* implementation_level */ '2;1');

FILE_NAME(
/* name */ 'Pieza Izquierda.stp',
/* time_stamp */ '2025-11-02T01:18:16-03:00',
/* author */ ('bello'),
/* organization */ (''),
/* preprocessor_version */ 'ST-DEVELOPER v20.1',
/* originating_system */ 'Autodesk Inventor 2026',
/* authorisation */ '');

FILE_SCHEMA (('AUTOMOTIVE_DESIGN { 1 0 10303 214 3 1 1 }'));
ENDSEC;

DATA;
#10=MECHANICAL_DESIGN_GEOMETRIC_PRESENTATION_REPRESENTATION('',(#16),#1008);
#11=GEOMETRICALLY_BOUNDED_WIREFRAME_SHAPE_REPRESENTATION('',(#12),#1007);
#12=GEOMETRIC_CURVE_SET('Boceto4',(#1004));
#13=SHAPE_REPRESENTATION_RELATIONSHIP('SRR','None',#1015,#15);
#14=SHAPE_REPRESENTATION_RELATIONSHIP('SRR','None',#1015,#11);
#15=ADVANCED_BREP_SHAPE_REPRESENTATION('',(#17),#1007);
#16=STYLED_ITEM('',(#1024),#17);
#17=MANIFOLD_SOLID_BREP('S\X\F3lido1',#566);
#18=FACE_BOUND('',#109,.T.);
#19=FACE_BOUND('',#110,.T.);
#20=FACE_BOUND('',#111,.T.);
#21=FACE_BOUND('',#112,.T.);
#22=FACE_BOUND('',#113,.T.);
#23=FACE_BOUND('',#119,.T.);
#24=FACE_BOUND('',#126,.T.);
#25=FACE_BOUND('',#132,.T.);
#26=FACE_BOUND('',#133,.T.);
#27=FACE_BOUND('',#134,.T.);
#28=FACE_BOUND('',#135,.T.);
#29=CONICAL_SURFACE('',#629,19.75,0.785398163397448);
#30=CONICAL_SURFACE('',#637,3.5,0.785398163397448);
#31=CONICAL_SURFACE('',#641,3.5,0.785398163397449);
#32=CONICAL_SURFACE('',#647,3.5,0.785398163397448);
#33=CONICAL_SURFACE('',#651,3.5,0.785398163397448);
#34=SPHERICAL_SURFACE('',#605,3.2);
#35=SPHERICAL_SURFACE('',#611,3.2);
#36=SPHERICAL_SURFACE('',#617,3.2);
#37=SPHERICAL_SURFACE('',#623,3.2);
#38=PLANE('',#592);
#39=PLANE('',#596);
#40=PLANE('',#600);
#41=PLANE('',#604);
#42=PLANE('',#635);
#43=PLANE('',#636);
#44=PLANE('',#640);
#45=PLANE('',#644);
#46=PLANE('',#645);
#47=PLANE('',#646);
#48=PLANE('',#650);
#49=PLANE('',#654);
#50=PLANE('',#655);
#51=PLANE('',#656);
#52=PLANE('',#657);
#53=PLANE('',#658);
#54=PLANE('',#659);
#55=FACE_OUTER_BOUND('',#90,.T.);
#56=FACE_OUTER_BOUND('',#91,.T.);
#57=FACE_OUTER_BOUND('',#92,.T.);
#58=FACE_OUTER_BOUND('',#93,.T.);
#59=FACE_OUTER_BOUND('',#94,.T.);
#60=FACE_OUTER_BOUND('',#95,.T.);
#61=FACE_OUTER_BOUND('',#96,.T.);
#62=FACE_OUTER_BOUND('',#97,.T.);
#63=FACE_OUTER_BOUND('',#98,.T.);
#64=FACE_OUTER_BOUND('',#99,.T.);
#65=FACE_OUTER_BOUND('',#100,.T.);
#66=FACE_OUTER_BOUND('',#101,.T.);
#67=FACE_OUTER_BOUND('',#102,.T.);
#68=FACE_OUTER_BOUND('',#103,.T.);
#69=FACE_OUTER_BOUND('',#104,.T.);
#70=FACE_OUTER_BOUND('',#105,.T.);
#71=FACE_OUTER_BOUND('',#106,.T.);
#72=FACE_OUTER_BOUND('',#107,.T.);
#73=FACE_OUTER_BOUND('',#108,.T.);
#74=FACE_OUTER_BOUND('',#114,.T.);
#75=FACE_OUTER_BOUND('',#115,.T.);
#76=FACE_OUTER_BOUND('',#116,.T.);
#77=FACE_OUTER_BOUND('',#117,.T.);
#78=FACE_OUTER_BOUND('',#118,.T.);
#79=FACE_OUTER_BOUND('',#120,.T.);
#80=FACE_OUTER_BOUND('',#121,.T.);
#81=FACE_OUTER_BOUND('',#122,.T.);
#82=FACE_OUTER_BOUND('',#123,.T.);
#83=FACE_OUTER_BOUND('',#124,.T.);
#84=FACE_OUTER_BOUND('',#125,.T.);
#85=FACE_OUTER_BOUND('',#127,.T.);
#86=FACE_OUTER_BOUND('',#128,.T.);
#87=FACE_OUTER_BOUND('',#129,.T.);
#88=FACE_OUTER_BOUND('',#130,.T.);
#89=FACE_OUTER_BOUND('',#131,.T.);
#90=EDGE_LOOP('',(#374,#375,#376,#377));
#91=EDGE_LOOP('',(#378));
#92=EDGE_LOOP('',(#379,#380,#381,#382));
#93=EDGE_LOOP('',(#383));
#94=EDGE_LOOP('',(#384,#385,#386,#387));
#95=EDGE_LOOP('',(#388));
#96=EDGE_LOOP('',(#389,#390,#391,#392));
#97=EDGE_LOOP('',(#393));
#98=EDGE_LOOP('',(#394,#395,#396,#397));
#99=EDGE_LOOP('',(#398,#399,#400,#401,#402));
#100=EDGE_LOOP('',(#403,#404,#405,#406));
#101=EDGE_LOOP('',(#407,#408,#409,#410,#411));
#102=EDGE_LOOP('',(#412,#413,#414,#415));
#103=EDGE_LOOP('',(#416,#417,#418,#419,#420));
#104=EDGE_LOOP('',(#421,#422,#423,#424));
#105=EDGE_LOOP('',(#425,#426,#427,#428,#429));
#106=EDGE_LOOP('',(#430,#431,#432,#433,#434));
#107=EDGE_LOOP('',(#435,#436,#437,#438,#439));
#108=EDGE_LOOP('',(#440,#441,#442,#443));
#109=EDGE_LOOP('',(#444));
#110=EDGE_LOOP('',(#445));
#111=EDGE_LOOP('',(#446));
#112=EDGE_LOOP('',(#447));
#113=EDGE_LOOP('',(#448));
#114=EDGE_LOOP('',(#449,#450,#451,#452));
#115=EDGE_LOOP('',(#453,#454,#455,#456));
#116=EDGE_LOOP('',(#457,#458,#459,#460));
#117=EDGE_LOOP('',(#461,#462,#463,#464));
#118=EDGE_LOOP('',(#465,#466,#467,#468));
#119=EDGE_LOOP('',(#469,#470,#471,#472));
#120=EDGE_LOOP('',(#473,#474,#475,#476));
#121=EDGE_LOOP('',(#477,#478,#479,#480));
#122=EDGE_LOOP('',(#481,#482,#483,#484));
#123=EDGE_LOOP('',(#485,#486,#487,#488));
#124=EDGE_LOOP('',(#489,#490,#491,#492));
#125=EDGE_LOOP('',(#493,#494,#495,#496));
#126=EDGE_LOOP('',(#497,#498,#499,#500));
#127=EDGE_LOOP('',(#501,#502,#503,#504));
#128=EDGE_LOOP('',(#505));
#129=EDGE_LOOP('',(#506,#507,#508,#509));
#130=EDGE_LOOP('',(#510,#511,#512,#513));
#131=EDGE_LOOP('',(#514,#515,#516,#517));
#132=EDGE_LOOP('',(#518));
#133=EDGE_LOOP('',(#519));
#134=EDGE_LOOP('',(#520));
#135=EDGE_LOOP('',(#521));
#136=LINE('',#847,#174);
#137=LINE('',#854,#175);
#138=LINE('',#861,#176);
#139=LINE('',#868,#177);
#140=LINE('',#880,#178);
#141=LINE('',#891,#179);
#142=LINE('',#902,#180);
#143=LINE('',#913,#181);
#144=LINE('',#919,#182);
#145=LINE('',#925,#183);
#146=LINE('',#930,#184);
#147=LINE('',#932,#185);
#148=LINE('',#934,#186);
#149=LINE('',#935,#187);
#150=LINE('',#939,#188);
#151=LINE('',#941,#189);
#152=LINE('',#943,#190);
#153=LINE('',#944,#191);
#154=LINE('',#948,#192);
#155=LINE('',#954,#193);
#156=LINE('',#955,#194);
#157=LINE('',#956,#195);
#158=LINE('',#963,#196);
#159=LINE('',#964,#197);
#160=LINE('',#965,#198);
#161=LINE('',#970,#199);
#162=LINE('',#972,#200);
#163=LINE('',#974,#201);
#164=LINE('',#975,#202);
#165=LINE('',#979,#203);
#166=LINE('',#985,#204);
#167=LINE('',#986,#205);
#168=LINE('',#987,#206);
#169=LINE('',#994,#207);
#170=LINE('',#995,#208);
#171=LINE('',#996,#209);
#172=LINE('',#1000,#210);
#173=LINE('',#1002,#211);
#174=VECTOR('',#666,3.7);
#175=VECTOR('',#675,3.7);
#176=VECTOR('',#684,3.7);
#177=VECTOR('',#693,3.7);
#178=VECTOR('',#708,3.2);
#179=VECTOR('',#721,3.2);
#180=VECTOR('',#734,3.2);
#181=VECTOR('',#747,3.2);
#182=VECTOR('',#754,19.75);
#183=VECTOR('',#761,18.5);
#184=VECTOR('',#766,10.);
#185=VECTOR('',#767,10.);
#186=VECTOR('',#768,10.);
#187=VECTOR('',#769,10.);
#188=VECTOR('',#772,10.);
#189=VECTOR('',#773,10.);
#190=VECTOR('',#774,10.);
#191=VECTOR('',#775,10.);
#192=VECTOR('',#778,10.);
#193=VECTOR('',#785,10.);
#194=VECTOR('',#786,10.);
#195=VECTOR('',#787,10.);
#196=VECTOR('',#796,10.);
#197=VECTOR('',#797,10.);
#198=VECTOR('',#798,10.);
#199=VECTOR('',#803,10.);
#200=VECTOR('',#804,10.);
#201=VECTOR('',#805,10.);
#202=VECTOR('',#806,10.);
#203=VECTOR('',#809,10.);
#204=VECTOR('',#816,10.);
#205=VECTOR('',#817,10.);
#206=VECTOR('',#818,10.);
#207=VECTOR('',#827,10.);
#208=VECTOR('',#828,10.);
#209=VECTOR('',#829,10.);
#210=VECTOR('',#836,10.);
#211=VECTOR('',#839,10.);
#212=CIRCLE('',#590,3.7);
#213=CIRCLE('',#591,3.7);
#214=CIRCLE('',#594,3.7);
#215=CIRCLE('',#595,3.7);
#216=CIRCLE('',#598,3.7);
#217=CIRCLE('',#599,3.7);
#218=CIRCLE('',#602,3.7);
#219=CIRCLE('',#603,3.7);
#220=CIRCLE('',#606,3.2);
#221=CIRCLE('',#607,3.2);
#222=CIRCLE('',#608,3.2);
#223=CIRCLE('',#610,3.2);
#224=CIRCLE('',#612,3.2);
#225=CIRCLE('',#613,3.2);
#226=CIRCLE('',#614,3.2);
#227=CIRCLE('',#616,3.2);
#228=CIRCLE('',#618,3.2);
#229=CIRCLE('',#619,3.2);
#230=CIRCLE('',#620,3.2);
#231=CIRCLE('',#622,3.2);
#232=CIRCLE('',#624,3.2);
#233=CIRCLE('',#625,3.2);
#234=CIRCLE('',#626,3.2);
#235=CIRCLE('',#628,3.2);
#236=CIRCLE('',#630,21.);
#237=CIRCLE('',#631,18.5);
#238=CIRCLE('',#632,18.5);
#239=CIRCLE('',#634,18.5);
#240=CIRCLE('',#638,5.5);
#241=CIRCLE('',#639,1.5);
#242=CIRCLE('',#642,5.5);
#243=CIRCLE('',#643,1.5);
#244=CIRCLE('',#648,5.5);
#245=CIRCLE('',#649,1.5);
#246=CIRCLE('',#652,5.5);
#247=CIRCLE('',#653,1.5);
#248=VERTEX_POINT('',#844);
#249=VERTEX_POINT('',#846);
#250=VERTEX_POINT('',#851);
#251=VERTEX_POINT('',#853);
#252=VERTEX_POINT('',#858);
#253=VERTEX_POINT('',#860);
#254=VERTEX_POINT('',#865);
#255=VERTEX_POINT('',#867);
#256=VERTEX_POINT('',#872);
#257=VERTEX_POINT('',#873);
#258=VERTEX_POINT('',#875);
#259=VERTEX_POINT('',#879);
#260=VERTEX_POINT('',#883);
#261=VERTEX_POINT('',#884);
#262=VERTEX_POINT('',#886);
#263=VERTEX_POINT('',#890);
#264=VERTEX_POINT('',#894);
#265=VERTEX_POINT('',#895);
#266=VERTEX_POINT('',#897);
#267=VERTEX_POINT('',#901);
#268=VERTEX_POINT('',#905);
#269=VERTEX_POINT('',#906);
#270=VERTEX_POINT('',#908);
#271=VERTEX_POINT('',#912);
#272=VERTEX_POINT('',#916);
#273=VERTEX_POINT('',#918);
#274=VERTEX_POINT('',#920);
#275=VERTEX_POINT('',#924);
#276=VERTEX_POINT('',#928);
#277=VERTEX_POINT('',#929);
#278=VERTEX_POINT('',#931);
#279=VERTEX_POINT('',#933);
#280=VERTEX_POINT('',#937);
#281=VERTEX_POINT('',#938);
#282=VERTEX_POINT('',#940);
#283=VERTEX_POINT('',#942);
#284=VERTEX_POINT('',#946);
#285=VERTEX_POINT('',#947);
#286=VERTEX_POINT('',#952);
#287=VERTEX_POINT('',#953);
#288=VERTEX_POINT('',#961);
#289=VERTEX_POINT('',#962);
#290=VERTEX_POINT('',#968);
#291=VERTEX_POINT('',#969);
#292=VERTEX_POINT('',#971);
#293=VERTEX_POINT('',#973);
#294=VERTEX_POINT('',#977);
#295=VERTEX_POINT('',#978);
#296=VERTEX_POINT('',#983);
#297=VERTEX_POINT('',#984);
#298=VERTEX_POINT('',#992);
#299=VERTEX_POINT('',#993);
#300=EDGE_CURVE('',#248,#248,#212,.T.);
#301=EDGE_CURVE('',#248,#249,#136,.T.);
#302=EDGE_CURVE('',#249,#249,#213,.T.);
#303=EDGE_CURVE('',#250,#250,#214,.T.);
#304=EDGE_CURVE('',#250,#251,#137,.T.);
#305=EDGE_CURVE('',#251,#251,#215,.T.);
#306=EDGE_CURVE('',#252,#252,#216,.T.);
#307=EDGE_CURVE('',#252,#253,#138,.T.);
#308=EDGE_CURVE('',#253,#253,#217,.T.);
#309=EDGE_CURVE('',#254,#254,#218,.T.);
#310=EDGE_CURVE('',#254,#255,#139,.T.);
#311=EDGE_CURVE('',#255,#255,#219,.T.);
#312=EDGE_CURVE('',#256,#257,#220,.T.);
#313=EDGE_CURVE('',#257,#258,#221,.T.);
#314=EDGE_CURVE('',#257,#256,#222,.T.);
#315=EDGE_CURVE('',#256,#259,#140,.T.);
#316=EDGE_CURVE('',#259,#259,#223,.T.);
#317=EDGE_CURVE('',#260,#261,#224,.T.);
#318=EDGE_CURVE('',#261,#262,#225,.T.);
#319=EDGE_CURVE('',#261,#260,#226,.T.);
#320=EDGE_CURVE('',#260,#263,#141,.T.);
#321=EDGE_CURVE('',#263,#263,#227,.T.);
#322=EDGE_CURVE('',#264,#265,#228,.T.);
#323=EDGE_CURVE('',#265,#266,#229,.T.);
#324=EDGE_CURVE('',#265,#264,#230,.T.);
#325=EDGE_CURVE('',#264,#267,#142,.T.);
#326=EDGE_CURVE('',#267,#267,#231,.T.);
#327=EDGE_CURVE('',#268,#269,#232,.T.);
#328=EDGE_CURVE('',#269,#270,#233,.T.);
#329=EDGE_CURVE('',#269,#268,#234,.T.);
#330=EDGE_CURVE('',#268,#271,#143,.T.);
#331=EDGE_CURVE('',#271,#271,#235,.T.);
#332=EDGE_CURVE('',#272,#272,#236,.T.);
#333=EDGE_CURVE('',#272,#273,#144,.T.);
#334=EDGE_CURVE('',#273,#274,#237,.T.);
#335=EDGE_CURVE('',#274,#273,#238,.T.);
#336=EDGE_CURVE('',#274,#275,#145,.T.);
#337=EDGE_CURVE('',#275,#275,#239,.T.);
#338=EDGE_CURVE('',#276,#277,#146,.T.);
#339=EDGE_CURVE('',#277,#278,#147,.T.);
#340=EDGE_CURVE('',#278,#279,#148,.T.);
#341=EDGE_CURVE('',#279,#276,#149,.T.);
#342=EDGE_CURVE('',#280,#281,#150,.T.);
#343=EDGE_CURVE('',#281,#282,#151,.T.);
#344=EDGE_CURVE('',#282,#283,#152,.T.);
#345=EDGE_CURVE('',#280,#283,#153,.T.);
#346=EDGE_CURVE('',#284,#285,#154,.T.);
#347=EDGE_CURVE('',#285,#281,#240,.T.);
#348=EDGE_CURVE('',#284,#280,#241,.T.);
#349=EDGE_CURVE('',#286,#287,#155,.T.);
#350=EDGE_CURVE('',#287,#285,#156,.T.);
#351=EDGE_CURVE('',#286,#284,#157,.T.);
#352=EDGE_CURVE('',#282,#287,#242,.T.);
#353=EDGE_CURVE('',#283,#286,#243,.T.);
#354=EDGE_CURVE('',#288,#289,#158,.T.);
#355=EDGE_CURVE('',#289,#279,#159,.T.);
#356=EDGE_CURVE('',#288,#278,#160,.T.);
#357=EDGE_CURVE('',#290,#291,#161,.T.);
#358=EDGE_CURVE('',#291,#292,#162,.T.);
#359=EDGE_CURVE('',#292,#293,#163,.T.);
#360=EDGE_CURVE('',#293,#290,#164,.T.);
#361=EDGE_CURVE('',#294,#295,#165,.T.);
#362=EDGE_CURVE('',#295,#291,#244,.T.);
#363=EDGE_CURVE('',#290,#294,#245,.T.);
#364=EDGE_CURVE('',#296,#297,#166,.T.);
#365=EDGE_CURVE('',#297,#295,#167,.T.);
#366=EDGE_CURVE('',#294,#296,#168,.T.);
#367=EDGE_CURVE('',#292,#297,#246,.T.);
#368=EDGE_CURVE('',#296,#293,#247,.T.);
#369=EDGE_CURVE('',#298,#299,#169,.T.);
#370=EDGE_CURVE('',#299,#277,#170,.T.);
#371=EDGE_CURVE('',#298,#276,#171,.T.);
#372=EDGE_CURVE('',#289,#298,#172,.T.);
#373=EDGE_CURVE('',#299,#288,#173,.T.);
#374=ORIENTED_EDGE('',*,*,#300,.F.);
#375=ORIENTED_EDGE('',*,*,#301,.T.);
#376=ORIENTED_EDGE('',*,*,#302,.T.);
#377=ORIENTED_EDGE('',*,*,#301,.F.);
#378=ORIENTED_EDGE('',*,*,#302,.F.);
#379=ORIENTED_EDGE('',*,*,#303,.F.);
#380=ORIENTED_EDGE('',*,*,#304,.T.);
#381=ORIENTED_EDGE('',*,*,#305,.T.);
#382=ORIENTED_EDGE('',*,*,#304,.F.);
#383=ORIENTED_EDGE('',*,*,#305,.F.);
#384=ORIENTED_EDGE('',*,*,#306,.F.);
#385=ORIENTED_EDGE('',*,*,#307,.T.);
#386=ORIENTED_EDGE('',*,*,#308,.T.);
#387=ORIENTED_EDGE('',*,*,#307,.F.);
#388=ORIENTED_EDGE('',*,*,#308,.F.);
#389=ORIENTED_EDGE('',*,*,#309,.F.);
#390=ORIENTED_EDGE('',*,*,#310,.T.);
#391=ORIENTED_EDGE('',*,*,#311,.T.);
#392=ORIENTED_EDGE('',*,*,#310,.F.);
#393=ORIENTED_EDGE('',*,*,#311,.F.);
#394=ORIENTED_EDGE('',*,*,#312,.T.);
#395=ORIENTED_EDGE('',*,*,#313,.T.);
#396=ORIENTED_EDGE('',*,*,#313,.F.);
#397=ORIENTED_EDGE('',*,*,#314,.T.);
#398=ORIENTED_EDGE('',*,*,#312,.F.);
#399=ORIENTED_EDGE('',*,*,#315,.T.);
#400=ORIENTED_EDGE('',*,*,#316,.F.);
#401=ORIENTED_EDGE('',*,*,#315,.F.);
#402=ORIENTED_EDGE('',*,*,#314,.F.);
#403=ORIENTED_EDGE('',*,*,#317,.T.);
#404=ORIENTED_EDGE('',*,*,#318,.T.);
#405=ORIENTED_EDGE('',*,*,#318,.F.);
#406=ORIENTED_EDGE('',*,*,#319,.T.);
#407=ORIENTED_EDGE('',*,*,#317,.F.);
#408=ORIENTED_EDGE('',*,*,#320,.T.);
#409=ORIENTED_EDGE('',*,*,#321,.F.);
#410=ORIENTED_EDGE('',*,*,#320,.F.);
#411=ORIENTED_EDGE('',*,*,#319,.F.);
#412=ORIENTED_EDGE('',*,*,#322,.T.);
#413=ORIENTED_EDGE('',*,*,#323,.T.);
#414=ORIENTED_EDGE('',*,*,#323,.F.);
#415=ORIENTED_EDGE('',*,*,#324,.T.);
#416=ORIENTED_EDGE('',*,*,#322,.F.);
#417=ORIENTED_EDGE('',*,*,#325,.T.);
#418=ORIENTED_EDGE('',*,*,#326,.F.);
#419=ORIENTED_EDGE('',*,*,#325,.F.);
#420=ORIENTED_EDGE('',*,*,#324,.F.);
#421=ORIENTED_EDGE('',*,*,#327,.T.);
#422=ORIENTED_EDGE('',*,*,#328,.T.);
#423=ORIENTED_EDGE('',*,*,#328,.F.);
#424=ORIENTED_EDGE('',*,*,#329,.T.);
#425=ORIENTED_EDGE('',*,*,#327,.F.);
#426=ORIENTED_EDGE('',*,*,#330,.T.);
#427=ORIENTED_EDGE('',*,*,#331,.F.);
#428=ORIENTED_EDGE('',*,*,#330,.F.);
#429=ORIENTED_EDGE('',*,*,#329,.F.);
#430=ORIENTED_EDGE('',*,*,#332,.T.);
#431=ORIENTED_EDGE('',*,*,#333,.T.);
#432=ORIENTED_EDGE('',*,*,#334,.T.);
#433=ORIENTED_EDGE('',*,*,#335,.T.);
#434=ORIENTED_EDGE('',*,*,#333,.F.);
#435=ORIENTED_EDGE('',*,*,#334,.F.);
#436=ORIENTED_EDGE('',*,*,#335,.F.);
#437=ORIENTED_EDGE('',*,*,#336,.T.);
#438=ORIENTED_EDGE('',*,*,#337,.T.);
#439=ORIENTED_EDGE('',*,*,#336,.F.);
#440=ORIENTED_EDGE('',*,*,#338,.T.);
#441=ORIENTED_EDGE('',*,*,#339,.T.);
#442=ORIENTED_EDGE('',*,*,#340,.T.);
#443=ORIENTED_EDGE('',*,*,#341,.T.);
#444=ORIENTED_EDGE('',*,*,#300,.T.);
#445=ORIENTED_EDGE('',*,*,#303,.T.);
#446=ORIENTED_EDGE('',*,*,#306,.T.);
#447=ORIENTED_EDGE('',*,*,#309,.T.);
#448=ORIENTED_EDGE('',*,*,#332,.F.);
#449=ORIENTED_EDGE('',*,*,#342,.T.);
#450=ORIENTED_EDGE('',*,*,#343,.T.);
#451=ORIENTED_EDGE('',*,*,#344,.T.);
#452=ORIENTED_EDGE('',*,*,#345,.F.);
#453=ORIENTED_EDGE('',*,*,#346,.T.);
#454=ORIENTED_EDGE('',*,*,#347,.T.);
#455=ORIENTED_EDGE('',*,*,#342,.F.);
#456=ORIENTED_EDGE('',*,*,#348,.F.);
#457=ORIENTED_EDGE('',*,*,#349,.T.);
#458=ORIENTED_EDGE('',*,*,#350,.T.);
#459=ORIENTED_EDGE('',*,*,#346,.F.);
#460=ORIENTED_EDGE('',*,*,#351,.F.);
#461=ORIENTED_EDGE('',*,*,#344,.F.);
#462=ORIENTED_EDGE('',*,*,#352,.T.);
#463=ORIENTED_EDGE('',*,*,#349,.F.);
#464=ORIENTED_EDGE('',*,*,#353,.F.);
#465=ORIENTED_EDGE('',*,*,#354,.T.);
#466=ORIENTED_EDGE('',*,*,#355,.T.);
#467=ORIENTED_EDGE('',*,*,#340,.F.);
#468=ORIENTED_EDGE('',*,*,#356,.F.);
#469=ORIENTED_EDGE('',*,*,#343,.F.);
#470=ORIENTED_EDGE('',*,*,#347,.F.);
#471=ORIENTED_EDGE('',*,*,#350,.F.);
#472=ORIENTED_EDGE('',*,*,#352,.F.);
#473=ORIENTED_EDGE('',*,*,#345,.T.);
#474=ORIENTED_EDGE('',*,*,#353,.T.);
#475=ORIENTED_EDGE('',*,*,#351,.T.);
#476=ORIENTED_EDGE('',*,*,#348,.T.);
#477=ORIENTED_EDGE('',*,*,#357,.T.);
#478=ORIENTED_EDGE('',*,*,#358,.T.);
#479=ORIENTED_EDGE('',*,*,#359,.T.);
#480=ORIENTED_EDGE('',*,*,#360,.T.);
#481=ORIENTED_EDGE('',*,*,#361,.T.);
#482=ORIENTED_EDGE('',*,*,#362,.T.);
#483=ORIENTED_EDGE('',*,*,#357,.F.);
#484=ORIENTED_EDGE('',*,*,#363,.T.);
#485=ORIENTED_EDGE('',*,*,#364,.T.);
#486=ORIENTED_EDGE('',*,*,#365,.T.);
#487=ORIENTED_EDGE('',*,*,#361,.F.);
#488=ORIENTED_EDGE('',*,*,#366,.T.);
#489=ORIENTED_EDGE('',*,*,#359,.F.);
#490=ORIENTED_EDGE('',*,*,#367,.T.);
#491=ORIENTED_EDGE('',*,*,#364,.F.);
#492=ORIENTED_EDGE('',*,*,#368,.T.);
#493=ORIENTED_EDGE('',*,*,#369,.T.);
#494=ORIENTED_EDGE('',*,*,#370,.T.);
#495=ORIENTED_EDGE('',*,*,#338,.F.);
#496=ORIENTED_EDGE('',*,*,#371,.F.);
#497=ORIENTED_EDGE('',*,*,#358,.F.);
#498=ORIENTED_EDGE('',*,*,#362,.F.);
#499=ORIENTED_EDGE('',*,*,#365,.F.);
#500=ORIENTED_EDGE('',*,*,#367,.F.);
#501=ORIENTED_EDGE('',*,*,#366,.F.);
#502=ORIENTED_EDGE('',*,*,#363,.F.);
#503=ORIENTED_EDGE('',*,*,#360,.F.);
#504=ORIENTED_EDGE('',*,*,#368,.F.);
#505=ORIENTED_EDGE('',*,*,#337,.F.);
#506=ORIENTED_EDGE('',*,*,#372,.T.);
#507=ORIENTED_EDGE('',*,*,#371,.T.);
#508=ORIENTED_EDGE('',*,*,#341,.F.);
#509=ORIENTED_EDGE('',*,*,#355,.F.);
#510=ORIENTED_EDGE('',*,*,#373,.T.);
#511=ORIENTED_EDGE('',*,*,#356,.T.);
#512=ORIENTED_EDGE('',*,*,#339,.F.);
#513=ORIENTED_EDGE('',*,*,#370,.F.);
#514=ORIENTED_EDGE('',*,*,#369,.F.);
#515=ORIENTED_EDGE('',*,*,#372,.F.);
#516=ORIENTED_EDGE('',*,*,#354,.F.);
#517=ORIENTED_EDGE('',*,*,#373,.F.);
#518=ORIENTED_EDGE('',*,*,#326,.T.);
#519=ORIENTED_EDGE('',*,*,#321,.T.);
#520=ORIENTED_EDGE('',*,*,#331,.T.);
#521=ORIENTED_EDGE('',*,*,#316,.T.);
#522=CYLINDRICAL_SURFACE('',#589,3.7);
#523=CYLINDRICAL_SURFACE('',#593,3.7);
#524=CYLINDRICAL_SURFACE('',#597,3.7);
#525=CYLINDRICAL_SURFACE('',#601,3.7);
#526=CYLINDRICAL_SURFACE('',#609,3.2);
#527=CYLINDRICAL_SURFACE('',#615,3.2);
#528=CYLINDRICAL_SURFACE('',#621,3.2);
#529=CYLINDRICAL_SURFACE('',#627,3.2);
#530=CYLINDRICAL_SURFACE('',#633,18.5);
#531=ADVANCED_FACE('',(#55),#522,.F.);
#532=ADVANCED_FACE('',(#56),#38,.T.);
#533=ADVANCED_FACE('',(#57),#523,.F.);
#534=ADVANCED_FACE('',(#58),#39,.T.);
#535=ADVANCED_FACE('',(#59),#524,.F.);
#536=ADVANCED_FACE('',(#60),#40,.T.);
#537=ADVANCED_FACE('',(#61),#525,.F.);
#538=ADVANCED_FACE('',(#62),#41,.T.);
#539=ADVANCED_FACE('',(#63),#34,.T.);
#540=ADVANCED_FACE('',(#64),#526,.T.);
#541=ADVANCED_FACE('',(#65),#35,.T.);
#542=ADVANCED_FACE('',(#66),#527,.T.);
#543=ADVANCED_FACE('',(#67),#36,.T.);
#544=ADVANCED_FACE('',(#68),#528,.T.);
#545=ADVANCED_FACE('',(#69),#37,.T.);
#546=ADVANCED_FACE('',(#70),#529,.T.);
#547=ADVANCED_FACE('',(#71),#29,.F.);
#548=ADVANCED_FACE('',(#72),#530,.F.);
#549=ADVANCED_FACE('',(#73,#18,#19,#20,#21,#22),#42,.T.);
#550=ADVANCED_FACE('',(#74),#43,.T.);
#551=ADVANCED_FACE('',(#75),#30,.F.);
#552=ADVANCED_FACE('',(#76),#44,.T.);
#553=ADVANCED_FACE('',(#77),#31,.F.);
#554=ADVANCED_FACE('',(#78,#23),#45,.T.);
#555=ADVANCED_FACE('',(#79),#46,.F.);
#556=ADVANCED_FACE('',(#80),#47,.T.);
#557=ADVANCED_FACE('',(#81),#32,.F.);
#558=ADVANCED_FACE('',(#82),#48,.T.);
#559=ADVANCED_FACE('',(#83),#33,.F.);
#560=ADVANCED_FACE('',(#84,#24),#49,.T.);
#561=ADVANCED_FACE('',(#85),#50,.T.);
#562=ADVANCED_FACE('',(#86),#51,.T.);
#563=ADVANCED_FACE('',(#87),#52,.T.);
#564=ADVANCED_FACE('',(#88),#53,.T.);
#565=ADVANCED_FACE('',(#89,#25,#26,#27,#28),#54,.F.);
#566=CLOSED_SHELL('',(#531,#532,#533,#534,#535,#536,#537,#538,#539,#540,
#541,#542,#543,#544,#545,#546,#547,#548,#549,#550,#551,#552,#553,#554,#555,
#556,#557,#558,#559,#560,#561,#562,#563,#564,#565));
#567=DERIVED_UNIT_ELEMENT(#570,1.);
#568=DERIVED_UNIT_ELEMENT(#1010,-3.);
#569=DIMENSIONAL_EXPONENTS(0.,1.,0.,0.,0.,0.,0.);
#570=(
CONVERSION_BASED_UNIT('gram',#572)
MASS_UNIT()
NAMED_UNIT(#569)
);
#571=(
MASS_UNIT()
NAMED_UNIT(*)
SI_UNIT(.KILO.,.GRAM.)
);
#572=MASS_MEASURE_WITH_UNIT(MASS_MEASURE(0.001),#571);
#573=DERIVED_UNIT((#567,#568));
#574=MEASURE_REPRESENTATION_ITEM('density measure',
POSITIVE_RATIO_MEASURE(1.27),#573);
#575=PROPERTY_DEFINITION_REPRESENTATION(#580,#577);
#576=PROPERTY_DEFINITION_REPRESENTATION(#581,#578);
#577=REPRESENTATION('material name',(#579),#1007);
#578=REPRESENTATION('density',(#574),#1007);
#579=DESCRIPTIVE_REPRESENTATION_ITEM('Plastico PETG','Plastico PETG');
#580=PROPERTY_DEFINITION('material property','material name',#1017);
#581=PROPERTY_DEFINITION('material property','density of part',#1017);
#582=DATE_TIME_ROLE('creation_date');
#583=APPLIED_DATE_AND_TIME_ASSIGNMENT(#584,#582,(#1017));
#584=DATE_AND_TIME(#585,#586);
#585=CALENDAR_DATE(2025,26,9);
#586=LOCAL_TIME(0,0,0.,#587);
#587=COORDINATED_UNIVERSAL_TIME_OFFSET(0,0,.BEHIND.);
#588=AXIS2_PLACEMENT_3D('',#842,#660,#661);
#589=AXIS2_PLACEMENT_3D('',#843,#662,#663);
#590=AXIS2_PLACEMENT_3D('',#845,#664,#665);
#591=AXIS2_PLACEMENT_3D('',#848,#667,#668);
#592=AXIS2_PLACEMENT_3D('',#849,#669,#670);
#593=AXIS2_PLACEMENT_3D('',#850,#671,#672);
#594=AXIS2_PLACEMENT_3D('',#852,#673,#674);
#595=AXIS2_PLACEMENT_3D('',#855,#676,#677);
#596=AXIS2_PLACEMENT_3D('',#856,#678,#679);
#597=AXIS2_PLACEMENT_3D('',#857,#680,#681);
#598=AXIS2_PLACEMENT_3D('',#859,#682,#683);
#599=AXIS2_PLACEMENT_3D('',#862,#685,#686);
#600=AXIS2_PLACEMENT_3D('',#863,#687,#688);
#601=AXIS2_PLACEMENT_3D('',#864,#689,#690);
#602=AXIS2_PLACEMENT_3D('',#866,#691,#692);
#603=AXIS2_PLACEMENT_3D('',#869,#694,#695);
#604=AXIS2_PLACEMENT_3D('',#870,#696,#697);
#605=AXIS2_PLACEMENT_3D('',#871,#698,#699);
#606=AXIS2_PLACEMENT_3D('',#874,#700,#701);
#607=AXIS2_PLACEMENT_3D('',#876,#702,#703);
#608=AXIS2_PLACEMENT_3D('',#877,#704,#705);
#609=AXIS2_PLACEMENT_3D('',#878,#706,#707);
#610=AXIS2_PLACEMENT_3D('',#881,#709,#710);
#611=AXIS2_PLACEMENT_3D('',#882,#711,#712);
#612=AXIS2_PLACEMENT_3D('',#885,#713,#714);
#613=AXIS2_PLACEMENT_3D('',#887,#715,#716);
#614=AXIS2_PLACEMENT_3D('',#888,#717,#718);
#615=AXIS2_PLACEMENT_3D('',#889,#719,#720);
#616=AXIS2_PLACEMENT_3D('',#892,#722,#723);
#617=AXIS2_PLACEMENT_3D('',#893,#724,#725);
#618=AXIS2_PLACEMENT_3D('',#896,#726,#727);
#619=AXIS2_PLACEMENT_3D('',#898,#728,#729);
#620=AXIS2_PLACEMENT_3D('',#899,#730,#731);
#621=AXIS2_PLACEMENT_3D('',#900,#732,#733);
#622=AXIS2_PLACEMENT_3D('',#903,#735,#736);
#623=AXIS2_PLACEMENT_3D('',#904,#737,#738);
#624=AXIS2_PLACEMENT_3D('',#907,#739,#740);
#625=AXIS2_PLACEMENT_3D('',#909,#741,#742);
#626=AXIS2_PLACEMENT_3D('',#910,#743,#744);
#627=AXIS2_PLACEMENT_3D('',#911,#745,#746);
#628=AXIS2_PLACEMENT_3D('',#914,#748,#749);
#629=AXIS2_PLACEMENT_3D('',#915,#750,#751);
#630=AXIS2_PLACEMENT_3D('',#917,#752,#753);
#631=AXIS2_PLACEMENT_3D('',#921,#755,#756);
#632=AXIS2_PLACEMENT_3D('',#922,#757,#758);
#633=AXIS2_PLACEMENT_3D('',#923,#759,#760);
#634=AXIS2_PLACEMENT_3D('',#926,#762,#763);
#635=AXIS2_PLACEMENT_3D('',#927,#764,#765);
#636=AXIS2_PLACEMENT_3D('',#936,#770,#771);
#637=AXIS2_PLACEMENT_3D('',#945,#776,#777);
#638=AXIS2_PLACEMENT_3D('',#949,#779,#780);
#639=AXIS2_PLACEMENT_3D('',#950,#781,#782);
#640=AXIS2_PLACEMENT_3D('',#951,#783,#784);
#641=AXIS2_PLACEMENT_3D('',#957,#788,#789);
#642=AXIS2_PLACEMENT_3D('',#958,#790,#791);
#643=AXIS2_PLACEMENT_3D('',#959,#792,#793);
#644=AXIS2_PLACEMENT_3D('',#960,#794,#795);
#645=AXIS2_PLACEMENT_3D('',#966,#799,#800);
#646=AXIS2_PLACEMENT_3D('',#967,#801,#802);
#647=AXIS2_PLACEMENT_3D('',#976,#807,#808);
#648=AXIS2_PLACEMENT_3D('',#980,#810,#811);
#649=AXIS2_PLACEMENT_3D('',#981,#812,#813);
#650=AXIS2_PLACEMENT_3D('',#982,#814,#815);
#651=AXIS2_PLACEMENT_3D('',#988,#819,#820);
#652=AXIS2_PLACEMENT_3D('',#989,#821,#822);
#653=AXIS2_PLACEMENT_3D('',#990,#823,#824);
#654=AXIS2_PLACEMENT_3D('',#991,#825,#826);
#655=AXIS2_PLACEMENT_3D('',#997,#830,#831);
#656=AXIS2_PLACEMENT_3D('',#998,#832,#833);
#657=AXIS2_PLACEMENT_3D('',#999,#834,#835);
#658=AXIS2_PLACEMENT_3D('',#1001,#837,#838);
#659=AXIS2_PLACEMENT_3D('',#1003,#840,#841);
#660=DIRECTION('axis',(0.,0.,1.));
#661=DIRECTION('refdir',(1.,0.,0.));
#662=DIRECTION('center_axis',(0.,-1.,0.));
#663=DIRECTION('ref_axis',(1.,0.,0.));
#664=DIRECTION('center_axis',(0.,-1.,0.));
#665=DIRECTION('ref_axis',(1.,0.,0.));
#666=DIRECTION('',(0.,-1.,0.));
#667=DIRECTION('center_axis',(0.,-1.,0.));
#668=DIRECTION('ref_axis',(1.,0.,0.));
#669=DIRECTION('center_axis',(0.,1.,0.));
#670=DIRECTION('ref_axis',(0.,0.,1.));
#671=DIRECTION('center_axis',(0.,-1.,0.));
#672=DIRECTION('ref_axis',(1.,0.,0.));
#673=DIRECTION('center_axis',(0.,-1.,0.));
#674=DIRECTION('ref_axis',(1.,0.,0.));
#675=DIRECTION('',(0.,-1.,0.));
#676=DIRECTION('center_axis',(0.,-1.,0.));
#677=DIRECTION('ref_axis',(1.,0.,0.));
#678=DIRECTION('center_axis',(0.,1.,0.));
#679=DIRECTION('ref_axis',(0.,0.,1.));
#680=DIRECTION('center_axis',(0.,-1.,0.));
#681=DIRECTION('ref_axis',(1.,0.,0.));
#682=DIRECTION('center_axis',(0.,-1.,0.));
#683=DIRECTION('ref_axis',(1.,0.,0.));
#684=DIRECTION('',(0.,-1.,0.));
#685=DIRECTION('center_axis',(0.,-1.,0.));
#686=DIRECTION('ref_axis',(1.,0.,0.));
#687=DIRECTION('center_axis',(0.,1.,0.));
#688=DIRECTION('ref_axis',(0.,0.,1.));
#689=DIRECTION('center_axis',(0.,-1.,0.));
#690=DIRECTION('ref_axis',(1.,0.,0.));
#691=DIRECTION('center_axis',(0.,-1.,0.));
#692=DIRECTION('ref_axis',(1.,0.,0.));
#693=DIRECTION('',(0.,-1.,0.));
#694=DIRECTION('center_axis',(0.,-1.,0.));
#695=DIRECTION('ref_axis',(1.,0.,0.));
#696=DIRECTION('center_axis',(0.,1.,0.));
#697=DIRECTION('ref_axis',(0.,0.,1.));
#698=DIRECTION('center_axis',(0.,1.,0.));
#699=DIRECTION('ref_axis',(0.,0.,-1.));
#700=DIRECTION('center_axis',(0.,-1.,0.));
#701=DIRECTION('ref_axis',(1.,0.,0.));
#702=DIRECTION('center_axis',(1.,0.,0.));
#703=DIRECTION('ref_axis',(0.,0.,1.));
#704=DIRECTION('center_axis',(0.,-1.,0.));
#705=DIRECTION('ref_axis',(1.,0.,0.));
#706=DIRECTION('center_axis',(0.,-1.,0.));
#707=DIRECTION('ref_axis',(1.,0.,0.));
#708=DIRECTION('',(0.,1.,0.));
#709=DIRECTION('center_axis',(0.,1.,0.));
#710=DIRECTION('ref_axis',(1.,0.,0.));
#711=DIRECTION('center_axis',(0.,1.,0.));
#712=DIRECTION('ref_axis',(0.,0.,-1.));
#713=DIRECTION('center_axis',(0.,-1.,0.));
#714=DIRECTION('ref_axis',(1.,0.,0.));
#715=DIRECTION('center_axis',(1.,0.,0.));
#716=DIRECTION('ref_axis',(0.,0.,1.));
#717=DIRECTION('center_axis',(0.,-1.,0.));
#718=DIRECTION('ref_axis',(1.,0.,0.));
#719=DIRECTION('center_axis',(0.,-1.,0.));
#720=DIRECTION('ref_axis',(1.,0.,0.));
#721=DIRECTION('',(0.,1.,0.));
#722=DIRECTION('center_axis',(0.,1.,0.));
#723=DIRECTION('ref_axis',(1.,0.,0.));
#724=DIRECTION('center_axis',(0.,1.,0.));
#725=DIRECTION('ref_axis',(0.,0.,-1.));
#726=DIRECTION('center_axis',(0.,-1.,0.));
#727=DIRECTION('ref_axis',(1.,0.,0.));
#728=DIRECTION('center_axis',(1.,0.,0.));
#729=DIRECTION('ref_axis',(0.,0.,1.));
#730=DIRECTION('center_axis',(0.,-1.,0.));
#731=DIRECTION('ref_axis',(1.,0.,0.));
#732=DIRECTION('center_axis',(0.,-1.,0.));
#733=DIRECTION('ref_axis',(1.,0.,0.));
#734=DIRECTION('',(0.,1.,0.));
#735=DIRECTION('center_axis',(0.,1.,0.));
#736=DIRECTION('ref_axis',(1.,0.,0.));
#737=DIRECTION('center_axis',(0.,1.,0.));
#738=DIRECTION('ref_axis',(0.,0.,-1.));
#739=DIRECTION('center_axis',(0.,-1.,0.));
#740=DIRECTION('ref_axis',(1.,0.,0.));
#741=DIRECTION('center_axis',(1.,0.,0.));
#742=DIRECTION('ref_axis',(0.,0.,1.));
#743=DIRECTION('center_axis',(0.,-1.,0.));
#744=DIRECTION('ref_axis',(1.,0.,0.));
#745=DIRECTION('center_axis',(0.,-1.,0.));
#746=DIRECTION('ref_axis',(1.,0.,0.));
#747=DIRECTION('',(0.,1.,0.));
#748=DIRECTION('center_axis',(0.,1.,0.));
#749=DIRECTION('ref_axis',(1.,0.,0.));
#750=DIRECTION('center_axis',(0.,1.,0.));
#751=DIRECTION('ref_axis',(-1.,0.,0.));
#752=DIRECTION('center_axis',(0.,1.,0.));
#753=DIRECTION('ref_axis',(-1.,0.,0.));
#754=DIRECTION('',(-0.707106781186547,-0.707106781186547,8.65956056235493E-17));
#755=DIRECTION('center_axis',(0.,-1.,0.));
#756=DIRECTION('ref_axis',(-1.,0.,0.));
#757=DIRECTION('center_axis',(0.,-1.,0.));
#758=DIRECTION('ref_axis',(-1.,0.,0.));
#759=DIRECTION('center_axis',(0.,-1.,0.));
#760=DIRECTION('ref_axis',(1.,0.,0.));
#761=DIRECTION('',(0.,-1.,0.));
#762=DIRECTION('center_axis',(0.,-1.,0.));
#763=DIRECTION('ref_axis',(1.,0.,0.));
#764=DIRECTION('center_axis',(0.,1.,0.));
#765=DIRECTION('ref_axis',(0.,0.,1.));
#766=DIRECTION('',(0.,0.,-1.));
#767=DIRECTION('',(-1.,0.,0.));
#768=DIRECTION('',(-1.15674511545872E-32,0.,1.));
#769=DIRECTION('',(1.,0.,2.76449956330963E-18));
#770=DIRECTION('center_axis',(-0.707106781186548,-0.707106781186547,-1.1805206456269E-16));
#771=DIRECTION('ref_axis',(-1.669508307707E-16,0.,1.));
#772=DIRECTION('',(-0.707106781186547,0.707106781186548,0.));
#773=DIRECTION('',(1.15674511545872E-32,1.669508307707E-16,-1.));
#774=DIRECTION('',(0.707106781186547,-0.707106781186548,0.));
#775=DIRECTION('',(0.,1.669508307707E-16,-1.));
#776=DIRECTION('center_axis',(-1.,0.,0.));
#777=DIRECTION('ref_axis',(0.,1.,0.));
#778=DIRECTION('',(-0.707106781186548,-0.707106781186547,0.));
#779=DIRECTION('center_axis',(-1.,0.,-1.15674511545872E-32));
#780=DIRECTION('ref_axis',(0.,1.,0.));
#781=DIRECTION('center_axis',(-1.,0.,0.));
#782=DIRECTION('ref_axis',(0.,1.,0.));
#783=DIRECTION('center_axis',(-0.707106781186548,0.707106781186548,1.1805206456269E-16));
#784=DIRECTION('ref_axis',(1.669508307707E-16,0.,1.));
#785=DIRECTION('',(-0.707106781186548,-0.707106781186547,0.));
#786=DIRECTION('',(-1.15674511545872E-32,-1.669508307707E-16,1.));
#787=DIRECTION('',(0.,-1.669508307707E-16,1.));
#788=DIRECTION('center_axis',(-1.,0.,0.));
#789=DIRECTION('ref_axis',(0.,-1.,0.));
#790=DIRECTION('center_axis',(-1.,0.,-1.15674511545872E-32));
#791=DIRECTION('ref_axis',(0.,-1.,0.));
#792=DIRECTION('center_axis',(-1.,0.,0.));
#793=DIRECTION('ref_axis',(0.,-1.,0.));
#794=DIRECTION('center_axis',(-1.,0.,-1.15674511545872E-32));
#795=DIRECTION('ref_axis',(-1.15674511545872E-32,0.,1.));
#796=DIRECTION('',(-1.15674511545872E-32,0.,1.));
#797=DIRECTION('',(0.,1.,0.));
#798=DIRECTION('',(0.,1.,0.));
#799=DIRECTION('center_axis',(1.,0.,0.));
#800=DIRECTION('ref_axis',(0.,0.,-1.));
#801=DIRECTION('center_axis',(0.707106781186547,0.707106781186548,1.1805206456269E-16));
#802=DIRECTION('ref_axis',(1.669508307707E-16,0.,-1.));
#803=DIRECTION('',(0.707106781186548,-0.707106781186547,0.));
#804=DIRECTION('',(0.,1.669508307707E-16,-1.));
#805=DIRECTION('',(-0.707106781186548,0.707106781186547,0.));
#806=DIRECTION('',(0.,-1.669508307707E-16,1.));
#807=DIRECTION('center_axis',(1.,0.,0.));
#808=DIRECTION('ref_axis',(0.,1.,0.));
#809=DIRECTION('',(0.707106781186548,0.707106781186547,0.));
#810=DIRECTION('center_axis',(1.,0.,0.));
#811=DIRECTION('ref_axis',(0.,1.,0.));
#812=DIRECTION('center_axis',(-1.,0.,0.));
#813=DIRECTION('ref_axis',(0.,1.,0.));
#814=DIRECTION('center_axis',(0.707106781186547,-0.707106781186548,-1.1805206456269E-16));
#815=DIRECTION('ref_axis',(-1.66950830770701E-16,0.,-1.));
#816=DIRECTION('',(0.707106781186548,0.707106781186547,0.));
#817=DIRECTION('',(0.,-1.669508307707E-16,1.));
#818=DIRECTION('',(0.,1.669508307707E-16,-1.));
#819=DIRECTION('center_axis',(1.,0.,0.));
#820=DIRECTION('ref_axis',(0.,-1.,0.));
#821=DIRECTION('center_axis',(1.,0.,0.));
#822=DIRECTION('ref_axis',(0.,-1.,0.));
#823=DIRECTION('center_axis',(-1.,0.,0.));
#824=DIRECTION('ref_axis',(0.,-1.,0.));
#825=DIRECTION('center_axis',(1.,0.,0.));
#826=DIRECTION('ref_axis',(0.,0.,-1.));
#827=DIRECTION('',(0.,0.,-1.));
#828=DIRECTION('',(0.,1.,0.));
#829=DIRECTION('',(0.,1.,0.));
#830=DIRECTION('center_axis',(1.,0.,0.));
#831=DIRECTION('ref_axis',(0.,0.,-1.));
#832=DIRECTION('center_axis',(0.,1.,0.));
#833=DIRECTION('ref_axis',(0.,0.,1.));
#834=DIRECTION('center_axis',(-2.76449956330963E-18,0.,1.));
#835=DIRECTION('ref_axis',(1.,0.,2.76449956330963E-18));
#836=DIRECTION('',(1.,0.,2.76449956330963E-18));
#837=DIRECTION('center_axis',(0.,0.,-1.));
#838=DIRECTION('ref_axis',(-1.,0.,0.));
#839=DIRECTION('',(-1.,0.,0.));
#840=DIRECTION('center_axis',(0.,1.,0.));
#841=DIRECTION('ref_axis',(0.,0.,1.));
#842=CARTESIAN_POINT('',(0.,0.,0.));
#843=CARTESIAN_POINT('Origin',(44.15,20.7,-51.65));
#844=CARTESIAN_POINT('',(40.45,20.7,-51.65));
#845=CARTESIAN_POINT('Origin',(44.15,20.7,-51.65));
#846=CARTESIAN_POINT('',(40.45,15.7,-51.65));
#847=CARTESIAN_POINT('',(40.45,20.7,-51.65));
#848=CARTESIAN_POINT('Origin',(44.15,15.7,-51.65));
#849=CARTESIAN_POINT('Origin',(44.15,15.7,-51.65));
#850=CARTESIAN_POINT('Origin',(6.05,20.7,-13.55));
#851=CARTESIAN_POINT('',(2.34999999999999,20.7,-13.55));
#852=CARTESIAN_POINT('Origin',(6.05,20.7,-13.55));
#853=CARTESIAN_POINT('',(2.34999999999999,15.7,-13.55));
#854=CARTESIAN_POINT('',(2.34999999999999,20.7,-13.55));
#855=CARTESIAN_POINT('Origin',(6.05,15.7,-13.55));
#856=CARTESIAN_POINT('Origin',(6.05,15.7,-13.55));
#857=CARTESIAN_POINT('Origin',(6.05,20.7,-51.65));
#858=CARTESIAN_POINT('',(2.34999999999999,20.7,-51.65));
#859=CARTESIAN_POINT('Origin',(6.05,20.7,-51.65));
#860=CARTESIAN_POINT('',(2.34999999999999,15.7,-51.65));
#861=CARTESIAN_POINT('',(2.34999999999999,20.7,-51.65));
#862=CARTESIAN_POINT('Origin',(6.05,15.7,-51.65));
#863=CARTESIAN_POINT('Origin',(6.05,15.7,-51.65));
#864=CARTESIAN_POINT('Origin',(44.15,20.7,-13.55));
#865=CARTESIAN_POINT('',(40.45,20.7,-13.55));
#866=CARTESIAN_POINT('Origin',(44.15,20.7,-13.55));
#867=CARTESIAN_POINT('',(40.45,15.7,-13.55));
#868=CARTESIAN_POINT('',(40.45,20.7,-13.55));
#869=CARTESIAN_POINT('Origin',(44.15,15.7,-13.55));
#870=CARTESIAN_POINT('Origin',(44.15,15.7,-13.55));
#871=CARTESIAN_POINT('Origin',(6.05,-1.,-7.2));
#872=CARTESIAN_POINT('',(2.84999999999999,-1.,-7.2));
#873=CARTESIAN_POINT('',(6.05,-1.,-4.));
#874=CARTESIAN_POINT('Origin',(6.05,-1.,-7.2));
#875=CARTESIAN_POINT('',(6.05,-4.2,-7.2));
#876=CARTESIAN_POINT('Origin',(6.05,-1.,-7.2));
#877=CARTESIAN_POINT('Origin',(6.05,-1.,-7.2));
#878=CARTESIAN_POINT('Origin',(6.05,0.,-7.2));
#879=CARTESIAN_POINT('',(2.84999999999999,0.,-7.2));
#880=CARTESIAN_POINT('',(2.84999999999999,0.,-7.2));
#881=CARTESIAN_POINT('Origin',(6.05,0.,-7.2));
#882=CARTESIAN_POINT('Origin',(44.15,-1.,-7.2));
#883=CARTESIAN_POINT('',(40.95,-1.,-7.2));
#884=CARTESIAN_POINT('',(44.15,-1.,-4.));
#885=CARTESIAN_POINT('Origin',(44.15,-1.,-7.2));
#886=CARTESIAN_POINT('',(44.15,-4.2,-7.2));
#887=CARTESIAN_POINT('Origin',(44.15,-1.,-7.2));
#888=CARTESIAN_POINT('Origin',(44.15,-1.,-7.2));
#889=CARTESIAN_POINT('Origin',(44.15,0.,-7.2));
#890=CARTESIAN_POINT('',(40.95,0.,-7.2));
#891=CARTESIAN_POINT('',(40.95,0.,-7.2));
#892=CARTESIAN_POINT('Origin',(44.15,0.,-7.2));
#893=CARTESIAN_POINT('Origin',(31.45,-1.,-45.3));
#894=CARTESIAN_POINT('',(28.25,-1.,-45.3));
#895=CARTESIAN_POINT('',(31.45,-1.,-42.1));
#896=CARTESIAN_POINT('Origin',(31.45,-1.,-45.3));
#897=CARTESIAN_POINT('',(31.45,-4.2,-45.3));
#898=CARTESIAN_POINT('Origin',(31.45,-1.,-45.3));
#899=CARTESIAN_POINT('Origin',(31.45,-1.,-45.3));
#900=CARTESIAN_POINT('Origin',(31.45,0.,-45.3));
#901=CARTESIAN_POINT('',(28.25,0.,-45.3));
#902=CARTESIAN_POINT('',(28.25,0.,-45.3));
#903=CARTESIAN_POINT('Origin',(31.45,0.,-45.3));
#904=CARTESIAN_POINT('Origin',(6.05,-1.,-58.));
#905=CARTESIAN_POINT('',(2.84999999999999,-1.,-58.));
#906=CARTESIAN_POINT('',(6.05,-1.,-54.8));
#907=CARTESIAN_POINT('Origin',(6.05,-1.,-58.));
#908=CARTESIAN_POINT('',(6.05,-4.2,-58.));
#909=CARTESIAN_POINT('Origin',(6.05,-1.,-58.));
#910=CARTESIAN_POINT('Origin',(6.05,-1.,-58.));
#911=CARTESIAN_POINT('Origin',(6.05,0.,-58.));
#912=CARTESIAN_POINT('',(2.84999999999999,0.,-58.));
#913=CARTESIAN_POINT('',(2.84999999999999,0.,-58.));
#914=CARTESIAN_POINT('Origin',(6.05,0.,-58.));
#915=CARTESIAN_POINT('Origin',(25.1,19.45,-32.6));
#916=CARTESIAN_POINT('',(46.1,20.7,-32.6));
#917=CARTESIAN_POINT('Origin',(25.1,20.7,-32.6));
#918=CARTESIAN_POINT('',(43.6,18.2,-32.6));
#919=CARTESIAN_POINT('',(44.85,19.45,-32.6));
#920=CARTESIAN_POINT('',(6.6,18.2,-32.6));
#921=CARTESIAN_POINT('Origin',(25.1,18.2,-32.6));
#922=CARTESIAN_POINT('Origin',(25.1,18.2,-32.6));
#923=CARTESIAN_POINT('Origin',(25.1,20.7,-32.6));
#924=CARTESIAN_POINT('',(6.6,5.7,-32.6));
#925=CARTESIAN_POINT('',(6.6,20.7,-32.6));
#926=CARTESIAN_POINT('Origin',(25.1,5.7,-32.6));
#927=CARTESIAN_POINT('Origin',(25.1,20.7,-32.6));
#928=CARTESIAN_POINT('',(50.2,20.7,1.38777878078144E-16));
#929=CARTESIAN_POINT('',(50.2,20.7,-65.2));
#930=CARTESIAN_POINT('',(50.2,20.7,1.38777878078144E-16));
#931=CARTESIAN_POINT('',(0.,20.7,-65.2));
#932=CARTESIAN_POINT('',(50.2,20.7,-65.2));
#933=CARTESIAN_POINT('',(0.,20.7,0.));
#934=CARTESIAN_POINT('',(7.54197815279083E-31,20.7,-65.2));
#935=CARTESIAN_POINT('',(0.,20.7,0.));
#936=CARTESIAN_POINT('Origin',(2.,13.85,-45.575));
#937=CARTESIAN_POINT('',(4.,11.85,-25.95));
#938=CARTESIAN_POINT('',(-2.27011228908773E-31,15.85,-25.95));
#939=CARTESIAN_POINT('',(4.,11.85,-25.95));
#940=CARTESIAN_POINT('',(-7.31641285527637E-32,15.85,-39.25));
#941=CARTESIAN_POINT('',(0.,15.85,-45.575));
#942=CARTESIAN_POINT('',(4.,11.85,-39.25));
#943=CARTESIAN_POINT('',(-7.31641285527637E-32,15.85,-39.25));
#944=CARTESIAN_POINT('',(4.,11.85,-39.25));
#945=CARTESIAN_POINT('Origin',(2.,10.35,-25.95));
#946=CARTESIAN_POINT('',(4.,8.85,-25.95));
#947=CARTESIAN_POINT('',(-7.79132311691718E-48,4.85,-25.95));
#948=CARTESIAN_POINT('',(4.,8.85,-25.95));
#949=CARTESIAN_POINT('Origin',(0.,10.35,-25.95));
#950=CARTESIAN_POINT('Origin',(4.,10.35,-25.95));
#951=CARTESIAN_POINT('Origin',(2.,6.85,-52.225));
#952=CARTESIAN_POINT('',(4.,8.85,-39.25));
#953=CARTESIAN_POINT('',(-1.50087678730768E-31,4.85,-39.25));
#954=CARTESIAN_POINT('',(4.,8.85,-39.25));
#955=CARTESIAN_POINT('',(0.,4.85,-52.225));
#956=CARTESIAN_POINT('',(4.,8.85,-25.95));
#957=CARTESIAN_POINT('Origin',(2.,10.35,-39.25));
#958=CARTESIAN_POINT('Origin',(0.,10.35,-39.25));
#959=CARTESIAN_POINT('Origin',(4.,10.35,-39.25));
#960=CARTESIAN_POINT('Origin',(7.54197815279083E-31,0.,-65.2));
#961=CARTESIAN_POINT('',(7.54197815279083E-31,0.,-65.2));
#962=CARTESIAN_POINT('',(0.,0.,0.));
#963=CARTESIAN_POINT('',(7.54197815279083E-31,0.,-65.2));
#964=CARTESIAN_POINT('',(0.,0.,0.));
#965=CARTESIAN_POINT('',(7.54197815279083E-31,0.,-65.2));
#966=CARTESIAN_POINT('Origin',(4.,10.35,-32.6));
#967=CARTESIAN_POINT('Origin',(48.2,6.84999999999999,-19.625));
#968=CARTESIAN_POINT('',(46.2,8.85,-25.95));
#969=CARTESIAN_POINT('',(50.2,4.85,-25.95));
#970=CARTESIAN_POINT('',(46.2,8.85,-25.95));
#971=CARTESIAN_POINT('',(50.2,4.85,-39.25));
#972=CARTESIAN_POINT('',(50.2,4.84999999999999,-19.625));
#973=CARTESIAN_POINT('',(46.2,8.85,-39.25));
#974=CARTESIAN_POINT('',(50.2,4.85,-39.25));
#975=CARTESIAN_POINT('',(46.2,8.85,-25.95));
#976=CARTESIAN_POINT('Origin',(48.2,10.35,-25.95));
#977=CARTESIAN_POINT('',(46.2,11.85,-25.95));
#978=CARTESIAN_POINT('',(50.2,15.85,-25.95));
#979=CARTESIAN_POINT('',(46.2,11.85,-25.95));
#980=CARTESIAN_POINT('Origin',(50.2,10.35,-25.95));
#981=CARTESIAN_POINT('Origin',(46.2,10.35,-25.95));
#982=CARTESIAN_POINT('Origin',(48.2,13.85,-12.975));
#983=CARTESIAN_POINT('',(46.2,11.85,-39.25));
#984=CARTESIAN_POINT('',(50.2,15.85,-39.25));
#985=CARTESIAN_POINT('',(46.2,11.85,-39.25));
#986=CARTESIAN_POINT('',(50.2,15.85,-12.975));
#987=CARTESIAN_POINT('',(46.2,11.85,-39.25));
#988=CARTESIAN_POINT('Origin',(48.2,10.35,-39.25));
#989=CARTESIAN_POINT('Origin',(50.2,10.35,-39.25));
#990=CARTESIAN_POINT('Origin',(46.2,10.35,-39.25));
#991=CARTESIAN_POINT('Origin',(50.2,0.,1.38777878078144E-16));
#992=CARTESIAN_POINT('',(50.2,0.,1.38777878078144E-16));
#993=CARTESIAN_POINT('',(50.2,0.,-65.2));
#994=CARTESIAN_POINT('',(50.2,0.,1.38777878078144E-16));
#995=CARTESIAN_POINT('',(50.2,0.,-65.2));
#996=CARTESIAN_POINT('',(50.2,0.,1.38777878078144E-16));
#997=CARTESIAN_POINT('Origin',(46.2,10.35,-32.6));
#998=CARTESIAN_POINT('Origin',(25.1,5.7,-32.6));
#999=CARTESIAN_POINT('Origin',(0.,0.,0.));
#1000=CARTESIAN_POINT('',(0.,0.,0.));
#1001=CARTESIAN_POINT('Origin',(50.2,0.,-65.2));
#1002=CARTESIAN_POINT('',(50.2,0.,-65.2));
#1003=CARTESIAN_POINT('Origin',(25.1,0.,-32.6));
#1004=CARTESIAN_POINT('',(50.2,0.,0.));
#1005=UNCERTAINTY_MEASURE_WITH_UNIT(LENGTH_MEASURE(0.01),#1009,
'DISTANCE_ACCURACY_VALUE',
'Maximum model space distance between geometric entities at asserted c
onnectivities');
#1006=UNCERTAINTY_MEASURE_WITH_UNIT(LENGTH_MEASURE(0.01),#1009,
'DISTANCE_ACCURACY_VALUE',
'Maximum model space distance between geometric entities at asserted c
onnectivities');
#1007=(
GEOMETRIC_REPRESENTATION_CONTEXT(3)
GLOBAL_UNCERTAINTY_ASSIGNED_CONTEXT((#1005))
GLOBAL_UNIT_ASSIGNED_CONTEXT((#1009,#1011,#1012))
REPRESENTATION_CONTEXT('','3D')
);
#1008=(
GEOMETRIC_REPRESENTATION_CONTEXT(3)
GLOBAL_UNCERTAINTY_ASSIGNED_CONTEXT((#1006))
GLOBAL_UNIT_ASSIGNED_CONTEXT((#1009,#1011,#1012))
REPRESENTATION_CONTEXT('','3D')
);
#1009=(
LENGTH_UNIT()
NAMED_UNIT(*)
SI_UNIT(.MILLI.,.METRE.)
);
#1010=(
LENGTH_UNIT()
NAMED_UNIT(*)
SI_UNIT(.CENTI.,.METRE.)
);
#1011=(
NAMED_UNIT(*)
PLANE_ANGLE_UNIT()
SI_UNIT($,.RADIAN.)
);
#1012=(
NAMED_UNIT(*)
SI_UNIT($,.STERADIAN.)
SOLID_ANGLE_UNIT()
);
#1013=SHAPE_DEFINITION_REPRESENTATION(#1014,#1015);
#1014=PRODUCT_DEFINITION_SHAPE('',$,#1017);
#1015=SHAPE_REPRESENTATION('',(#588),#1007);
#1016=PRODUCT_DEFINITION_CONTEXT('part definition',#1021,'design');
#1017=PRODUCT_DEFINITION('Pieza1','Pieza Izquierda',#1018,#1016);
#1018=PRODUCT_DEFINITION_FORMATION('',$,#1023);
#1019=PRODUCT_RELATED_PRODUCT_CATEGORY('Pieza Izquierda',
'Pieza Izquierda',(#1023));
#1020=APPLICATION_PROTOCOL_DEFINITION('international standard',
'automotive_design',2009,#1021);
#1021=APPLICATION_CONTEXT(
'Core Data for Automotive Mechanical Design Process');
#1022=PRODUCT_CONTEXT('part definition',#1021,'mechanical');
#1023=PRODUCT('Pieza1','Pieza Izquierda',$,(#1022));
#1024=PRESENTATION_STYLE_ASSIGNMENT((#1026));
#1025=PRESENTATION_STYLE_ASSIGNMENT((#1027));
#1026=SURFACE_STYLE_USAGE(.BOTH.,#1030);
#1027=SURFACE_STYLE_USAGE(.BOTH.,#1031);
#1028=SURFACE_STYLE_RENDERING_WITH_PROPERTIES($,#1038,(#1029));
#1029=SURFACE_STYLE_TRANSPARENT(0.);
#1030=SURFACE_SIDE_STYLE('',(#1032,#1028));
#1031=SURFACE_SIDE_STYLE('',(#1033));
#1032=SURFACE_STYLE_FILL_AREA(#1034);
#1033=SURFACE_STYLE_FILL_AREA(#1035);
#1034=FILL_AREA_STYLE('',(#1036));
#1035=FILL_AREA_STYLE('',(#1037));
#1036=FILL_AREA_STYLE_COLOUR('',#1038);
#1037=FILL_AREA_STYLE_COLOUR('',#1039);
#1038=COLOUR_RGB('',0.313725490196078,0.313725490196078,0.313725490196078);
#1039=COLOUR_RGB('',1.,1.,0.);
ENDSEC;
END-ISO-10303-21;
