ISO-10303-21;
HEADER;
/* Generated by software containing ST-Developer
 * from STEP Tools, Inc. (www.steptools.com) 
 */

FILE_DESCRIPTION(
/* description */ (''),
/* implementation_level */ '2;1');

FILE_NAME(
/* name */ 'Pieza Central.stp',
/* time_stamp */ '2025-11-02T01:18:25-03:00',
/* author */ ('bello'),
/* organization */ (''),
/* preprocessor_version */ 'ST-DEVELOPER v20.1',
/* originating_system */ 'Autodesk Inventor 2026',
/* authorisation */ '');

FILE_SCHEMA (('AUTOMOTIVE_DESIGN { 1 0 10303 214 3 1 1 }'));
ENDSEC;

DATA;
#10=MECHANICAL_DESIGN_GEOMETRIC_PRESENTATION_REPRESENTATION('',(#16),#828);
#11=GEOMETRICALLY_BOUNDED_WIREFRAME_SHAPE_REPRESENTATION('',(#12),#827);
#12=GEOMETRIC_CURVE_SET('Boceto4',(#824));
#13=SHAPE_REPRESENTATION_RELATIONSHIP('SRR','None',#835,#15);
#14=SHAPE_REPRESENTATION_RELATIONSHIP('SRR','None',#835,#11);
#15=ADVANCED_BREP_SHAPE_REPRESENTATION('',(#17),#827);
#16=STYLED_ITEM('',(#844),#17);
#17=MANIFOLD_SOLID_BREP('S\X\F3lido1',#466);
#18=FACE_BOUND('',#154,.T.);
#19=FACE_BOUND('',#160,.T.);
#20=FACE_BOUND('',#167,.T.);
#21=FACE_BOUND('',#173,.T.);
#22=FACE_BOUND('',#174,.T.);
#23=FACE_BOUND('',#175,.T.);
#24=FACE_BOUND('',#176,.T.);
#25=PLANE('',#519);
#26=PLANE('',#520);
#27=PLANE('',#524);
#28=PLANE('',#528);
#29=PLANE('',#529);
#30=PLANE('',#530);
#31=PLANE('',#534);
#32=PLANE('',#538);
#33=PLANE('',#539);
#34=PLANE('',#540);
#35=PLANE('',#541);
#36=PLANE('',#542);
#37=PLANE('',#543);
#38=CONICAL_SURFACE('',#513,19.75,0.785398163397448);
#39=CONICAL_SURFACE('',#521,3.5,0.785398163397451);
#40=CONICAL_SURFACE('',#525,3.5,0.785398163397451);
#41=CONICAL_SURFACE('',#531,3.5,0.785398163397448);
#42=CONICAL_SURFACE('',#535,3.5,0.785398163397446);
#43=LINE('',#700,#77);
#44=LINE('',#711,#78);
#45=LINE('',#722,#79);
#46=LINE('',#733,#80);
#47=LINE('',#739,#81);
#48=LINE('',#745,#82);
#49=LINE('',#750,#83);
#50=LINE('',#752,#84);
#51=LINE('',#754,#85);
#52=LINE('',#755,#86);
#53=LINE('',#759,#87);
#54=LINE('',#761,#88);
#55=LINE('',#763,#89);
#56=LINE('',#764,#90);
#57=LINE('',#768,#91);
#58=LINE('',#774,#92);
#59=LINE('',#775,#93);
#60=LINE('',#776,#94);
#61=LINE('',#783,#95);
#62=LINE('',#784,#96);
#63=LINE('',#785,#97);
#64=LINE('',#790,#98);
#65=LINE('',#792,#99);
#66=LINE('',#794,#100);
#67=LINE('',#795,#101);
#68=LINE('',#799,#102);
#69=LINE('',#805,#103);
#70=LINE('',#806,#104);
#71=LINE('',#807,#105);
#72=LINE('',#814,#106);
#73=LINE('',#815,#107);
#74=LINE('',#816,#108);
#75=LINE('',#820,#109);
#76=LINE('',#822,#110);
#77=VECTOR('',#556,3.2);
#78=VECTOR('',#569,3.2);
#79=VECTOR('',#582,3.2);
#80=VECTOR('',#595,3.2);
#81=VECTOR('',#602,19.75);
#82=VECTOR('',#609,18.5);
#83=VECTOR('',#614,10.);
#84=VECTOR('',#615,10.);
#85=VECTOR('',#616,10.);
#86=VECTOR('',#617,10.);
#87=VECTOR('',#620,10.);
#88=VECTOR('',#621,10.);
#89=VECTOR('',#622,10.);
#90=VECTOR('',#623,10.);
#91=VECTOR('',#626,10.);
#92=VECTOR('',#633,10.);
#93=VECTOR('',#634,10.);
#94=VECTOR('',#635,10.);
#95=VECTOR('',#644,10.);
#96=VECTOR('',#645,10.);
#97=VECTOR('',#646,10.);
#98=VECTOR('',#651,10.);
#99=VECTOR('',#652,10.);
#100=VECTOR('',#653,10.);
#101=VECTOR('',#654,10.);
#102=VECTOR('',#657,10.);
#103=VECTOR('',#664,10.);
#104=VECTOR('',#665,10.);
#105=VECTOR('',#666,10.);
#106=VECTOR('',#675,10.);
#107=VECTOR('',#676,10.);
#108=VECTOR('',#677,10.);
#109=VECTOR('',#684,10.);
#110=VECTOR('',#687,10.);
#111=CYLINDRICAL_SURFACE('',#493,3.2);
#112=CYLINDRICAL_SURFACE('',#499,3.2);
#113=CYLINDRICAL_SURFACE('',#505,3.2);
#114=CYLINDRICAL_SURFACE('',#511,3.2);
#115=CYLINDRICAL_SURFACE('',#517,18.5);
#116=FACE_OUTER_BOUND('',#143,.T.);
#117=FACE_OUTER_BOUND('',#144,.T.);
#118=FACE_OUTER_BOUND('',#145,.T.);
#119=FACE_OUTER_BOUND('',#146,.T.);
#120=FACE_OUTER_BOUND('',#147,.T.);
#121=FACE_OUTER_BOUND('',#148,.T.);
#122=FACE_OUTER_BOUND('',#149,.T.);
#123=FACE_OUTER_BOUND('',#150,.T.);
#124=FACE_OUTER_BOUND('',#151,.T.);
#125=FACE_OUTER_BOUND('',#152,.T.);
#126=FACE_OUTER_BOUND('',#153,.T.);
#127=FACE_OUTER_BOUND('',#155,.T.);
#128=FACE_OUTER_BOUND('',#156,.T.);
#129=FACE_OUTER_BOUND('',#157,.T.);
#130=FACE_OUTER_BOUND('',#158,.T.);
#131=FACE_OUTER_BOUND('',#159,.T.);
#132=FACE_OUTER_BOUND('',#161,.T.);
#133=FACE_OUTER_BOUND('',#162,.T.);
#134=FACE_OUTER_BOUND('',#163,.T.);
#135=FACE_OUTER_BOUND('',#164,.T.);
#136=FACE_OUTER_BOUND('',#165,.T.);
#137=FACE_OUTER_BOUND('',#166,.T.);
#138=FACE_OUTER_BOUND('',#168,.T.);
#139=FACE_OUTER_BOUND('',#169,.T.);
#140=FACE_OUTER_BOUND('',#170,.T.);
#141=FACE_OUTER_BOUND('',#171,.T.);
#142=FACE_OUTER_BOUND('',#172,.T.);
#143=EDGE_LOOP('',(#311,#312,#313,#314));
#144=EDGE_LOOP('',(#315,#316,#317,#318,#319));
#145=EDGE_LOOP('',(#320,#321,#322,#323));
#146=EDGE_LOOP('',(#324,#325,#326,#327,#328));
#147=EDGE_LOOP('',(#329,#330,#331,#332));
#148=EDGE_LOOP('',(#333,#334,#335,#336,#337));
#149=EDGE_LOOP('',(#338,#339,#340,#341));
#150=EDGE_LOOP('',(#342,#343,#344,#345,#346));
#151=EDGE_LOOP('',(#347,#348,#349,#350,#351));
#152=EDGE_LOOP('',(#352,#353,#354,#355,#356));
#153=EDGE_LOOP('',(#357,#358,#359,#360));
#154=EDGE_LOOP('',(#361));
#155=EDGE_LOOP('',(#362,#363,#364,#365));
#156=EDGE_LOOP('',(#366,#367,#368,#369));
#157=EDGE_LOOP('',(#370,#371,#372,#373));
#158=EDGE_LOOP('',(#374,#375,#376,#377));
#159=EDGE_LOOP('',(#378,#379,#380,#381));
#160=EDGE_LOOP('',(#382,#383,#384,#385));
#161=EDGE_LOOP('',(#386,#387,#388,#389));
#162=EDGE_LOOP('',(#390,#391,#392,#393));
#163=EDGE_LOOP('',(#394,#395,#396,#397));
#164=EDGE_LOOP('',(#398,#399,#400,#401));
#165=EDGE_LOOP('',(#402,#403,#404,#405));
#166=EDGE_LOOP('',(#406,#407,#408,#409));
#167=EDGE_LOOP('',(#410,#411,#412,#413));
#168=EDGE_LOOP('',(#414,#415,#416,#417));
#169=EDGE_LOOP('',(#418));
#170=EDGE_LOOP('',(#419,#420,#421,#422));
#171=EDGE_LOOP('',(#423,#424,#425,#426));
#172=EDGE_LOOP('',(#427,#428,#429,#430));
#173=EDGE_LOOP('',(#431));
#174=EDGE_LOOP('',(#432));
#175=EDGE_LOOP('',(#433));
#176=EDGE_LOOP('',(#434));
#177=CIRCLE('',#490,3.2);
#178=CIRCLE('',#491,3.2);
#179=CIRCLE('',#492,3.2);
#180=CIRCLE('',#494,3.2);
#181=CIRCLE('',#496,3.2);
#182=CIRCLE('',#497,3.2);
#183=CIRCLE('',#498,3.2);
#184=CIRCLE('',#500,3.2);
#185=CIRCLE('',#502,3.2);
#186=CIRCLE('',#503,3.2);
#187=CIRCLE('',#504,3.2);
#188=CIRCLE('',#506,3.2);
#189=CIRCLE('',#508,3.2);
#190=CIRCLE('',#509,3.2);
#191=CIRCLE('',#510,3.2);
#192=CIRCLE('',#512,3.2);
#193=CIRCLE('',#514,21.);
#194=CIRCLE('',#515,18.5);
#195=CIRCLE('',#516,18.5);
#196=CIRCLE('',#518,18.5);
#197=CIRCLE('',#522,5.5);
#198=CIRCLE('',#523,1.5);
#199=CIRCLE('',#526,5.5);
#200=CIRCLE('',#527,1.5);
#201=CIRCLE('',#532,5.5);
#202=CIRCLE('',#533,1.5);
#203=CIRCLE('',#536,5.5);
#204=CIRCLE('',#537,1.5);
#205=VERTEX_POINT('',#692);
#206=VERTEX_POINT('',#693);
#207=VERTEX_POINT('',#695);
#208=VERTEX_POINT('',#699);
#209=VERTEX_POINT('',#703);
#210=VERTEX_POINT('',#704);
#211=VERTEX_POINT('',#706);
#212=VERTEX_POINT('',#710);
#213=VERTEX_POINT('',#714);
#214=VERTEX_POINT('',#715);
#215=VERTEX_POINT('',#717);
#216=VERTEX_POINT('',#721);
#217=VERTEX_POINT('',#725);
#218=VERTEX_POINT('',#726);
#219=VERTEX_POINT('',#728);
#220=VERTEX_POINT('',#732);
#221=VERTEX_POINT('',#736);
#222=VERTEX_POINT('',#738);
#223=VERTEX_POINT('',#740);
#224=VERTEX_POINT('',#744);
#225=VERTEX_POINT('',#748);
#226=VERTEX_POINT('',#749);
#227=VERTEX_POINT('',#751);
#228=VERTEX_POINT('',#753);
#229=VERTEX_POINT('',#757);
#230=VERTEX_POINT('',#758);
#231=VERTEX_POINT('',#760);
#232=VERTEX_POINT('',#762);
#233=VERTEX_POINT('',#766);
#234=VERTEX_POINT('',#767);
#235=VERTEX_POINT('',#772);
#236=VERTEX_POINT('',#773);
#237=VERTEX_POINT('',#781);
#238=VERTEX_POINT('',#782);
#239=VERTEX_POINT('',#788);
#240=VERTEX_POINT('',#789);
#241=VERTEX_POINT('',#791);
#242=VERTEX_POINT('',#793);
#243=VERTEX_POINT('',#797);
#244=VERTEX_POINT('',#798);
#245=VERTEX_POINT('',#803);
#246=VERTEX_POINT('',#804);
#247=VERTEX_POINT('',#812);
#248=VERTEX_POINT('',#813);
#249=EDGE_CURVE('',#205,#206,#177,.T.);
#250=EDGE_CURVE('',#206,#207,#178,.T.);
#251=EDGE_CURVE('',#206,#205,#179,.T.);
#252=EDGE_CURVE('',#205,#208,#43,.T.);
#253=EDGE_CURVE('',#208,#208,#180,.T.);
#254=EDGE_CURVE('',#209,#210,#181,.T.);
#255=EDGE_CURVE('',#210,#211,#182,.T.);
#256=EDGE_CURVE('',#210,#209,#183,.T.);
#257=EDGE_CURVE('',#209,#212,#44,.T.);
#258=EDGE_CURVE('',#212,#212,#184,.T.);
#259=EDGE_CURVE('',#213,#214,#185,.T.);
#260=EDGE_CURVE('',#214,#215,#186,.T.);
#261=EDGE_CURVE('',#214,#213,#187,.T.);
#262=EDGE_CURVE('',#213,#216,#45,.T.);
#263=EDGE_CURVE('',#216,#216,#188,.T.);
#264=EDGE_CURVE('',#217,#218,#189,.T.);
#265=EDGE_CURVE('',#218,#219,#190,.T.);
#266=EDGE_CURVE('',#218,#217,#191,.T.);
#267=EDGE_CURVE('',#217,#220,#46,.T.);
#268=EDGE_CURVE('',#220,#220,#192,.T.);
#269=EDGE_CURVE('',#221,#221,#193,.T.);
#270=EDGE_CURVE('',#221,#222,#47,.T.);
#271=EDGE_CURVE('',#222,#223,#194,.T.);
#272=EDGE_CURVE('',#223,#222,#195,.T.);
#273=EDGE_CURVE('',#223,#224,#48,.T.);
#274=EDGE_CURVE('',#224,#224,#196,.T.);
#275=EDGE_CURVE('',#225,#226,#49,.T.);
#276=EDGE_CURVE('',#226,#227,#50,.T.);
#277=EDGE_CURVE('',#227,#228,#51,.T.);
#278=EDGE_CURVE('',#228,#225,#52,.T.);
#279=EDGE_CURVE('',#229,#230,#53,.T.);
#280=EDGE_CURVE('',#230,#231,#54,.T.);
#281=EDGE_CURVE('',#231,#232,#55,.T.);
#282=EDGE_CURVE('',#229,#232,#56,.T.);
#283=EDGE_CURVE('',#233,#234,#57,.T.);
#284=EDGE_CURVE('',#234,#230,#197,.T.);
#285=EDGE_CURVE('',#233,#229,#198,.T.);
#286=EDGE_CURVE('',#235,#236,#58,.T.);
#287=EDGE_CURVE('',#236,#234,#59,.T.);
#288=EDGE_CURVE('',#235,#233,#60,.T.);
#289=EDGE_CURVE('',#231,#236,#199,.T.);
#290=EDGE_CURVE('',#232,#235,#200,.T.);
#291=EDGE_CURVE('',#237,#238,#61,.T.);
#292=EDGE_CURVE('',#238,#228,#62,.T.);
#293=EDGE_CURVE('',#237,#227,#63,.T.);
#294=EDGE_CURVE('',#239,#240,#64,.T.);
#295=EDGE_CURVE('',#240,#241,#65,.T.);
#296=EDGE_CURVE('',#241,#242,#66,.T.);
#297=EDGE_CURVE('',#242,#239,#67,.T.);
#298=EDGE_CURVE('',#243,#244,#68,.T.);
#299=EDGE_CURVE('',#244,#240,#201,.T.);
#300=EDGE_CURVE('',#239,#243,#202,.T.);
#301=EDGE_CURVE('',#245,#246,#69,.T.);
#302=EDGE_CURVE('',#246,#244,#70,.T.);
#303=EDGE_CURVE('',#243,#245,#71,.T.);
#304=EDGE_CURVE('',#241,#246,#203,.T.);
#305=EDGE_CURVE('',#245,#242,#204,.T.);
#306=EDGE_CURVE('',#247,#248,#72,.T.);
#307=EDGE_CURVE('',#248,#226,#73,.T.);
#308=EDGE_CURVE('',#247,#225,#74,.T.);
#309=EDGE_CURVE('',#238,#247,#75,.T.);
#310=EDGE_CURVE('',#248,#237,#76,.T.);
#311=ORIENTED_EDGE('',*,*,#249,.T.);
#312=ORIENTED_EDGE('',*,*,#250,.T.);
#313=ORIENTED_EDGE('',*,*,#250,.F.);
#314=ORIENTED_EDGE('',*,*,#251,.T.);
#315=ORIENTED_EDGE('',*,*,#249,.F.);
#316=ORIENTED_EDGE('',*,*,#252,.T.);
#317=ORIENTED_EDGE('',*,*,#253,.F.);
#318=ORIENTED_EDGE('',*,*,#252,.F.);
#319=ORIENTED_EDGE('',*,*,#251,.F.);
#320=ORIENTED_EDGE('',*,*,#254,.T.);
#321=ORIENTED_EDGE('',*,*,#255,.T.);
#322=ORIENTED_EDGE('',*,*,#255,.F.);
#323=ORIENTED_EDGE('',*,*,#256,.T.);
#324=ORIENTED_EDGE('',*,*,#254,.F.);
#325=ORIENTED_EDGE('',*,*,#257,.T.);
#326=ORIENTED_EDGE('',*,*,#258,.F.);
#327=ORIENTED_EDGE('',*,*,#257,.F.);
#328=ORIENTED_EDGE('',*,*,#256,.F.);
#329=ORIENTED_EDGE('',*,*,#259,.T.);
#330=ORIENTED_EDGE('',*,*,#260,.T.);
#331=ORIENTED_EDGE('',*,*,#260,.F.);
#332=ORIENTED_EDGE('',*,*,#261,.T.);
#333=ORIENTED_EDGE('',*,*,#259,.F.);
#334=ORIENTED_EDGE('',*,*,#262,.T.);
#335=ORIENTED_EDGE('',*,*,#263,.F.);
#336=ORIENTED_EDGE('',*,*,#262,.F.);
#337=ORIENTED_EDGE('',*,*,#261,.F.);
#338=ORIENTED_EDGE('',*,*,#264,.T.);
#339=ORIENTED_EDGE('',*,*,#265,.T.);
#340=ORIENTED_EDGE('',*,*,#265,.F.);
#341=ORIENTED_EDGE('',*,*,#266,.T.);
#342=ORIENTED_EDGE('',*,*,#264,.F.);
#343=ORIENTED_EDGE('',*,*,#267,.T.);
#344=ORIENTED_EDGE('',*,*,#268,.F.);
#345=ORIENTED_EDGE('',*,*,#267,.F.);
#346=ORIENTED_EDGE('',*,*,#266,.F.);
#347=ORIENTED_EDGE('',*,*,#269,.T.);
#348=ORIENTED_EDGE('',*,*,#270,.T.);
#349=ORIENTED_EDGE('',*,*,#271,.T.);
#350=ORIENTED_EDGE('',*,*,#272,.T.);
#351=ORIENTED_EDGE('',*,*,#270,.F.);
#352=ORIENTED_EDGE('',*,*,#271,.F.);
#353=ORIENTED_EDGE('',*,*,#272,.F.);
#354=ORIENTED_EDGE('',*,*,#273,.T.);
#355=ORIENTED_EDGE('',*,*,#274,.T.);
#356=ORIENTED_EDGE('',*,*,#273,.F.);
#357=ORIENTED_EDGE('',*,*,#275,.T.);
#358=ORIENTED_EDGE('',*,*,#276,.T.);
#359=ORIENTED_EDGE('',*,*,#277,.T.);
#360=ORIENTED_EDGE('',*,*,#278,.T.);
#361=ORIENTED_EDGE('',*,*,#269,.F.);
#362=ORIENTED_EDGE('',*,*,#279,.T.);
#363=ORIENTED_EDGE('',*,*,#280,.T.);
#364=ORIENTED_EDGE('',*,*,#281,.T.);
#365=ORIENTED_EDGE('',*,*,#282,.F.);
#366=ORIENTED_EDGE('',*,*,#283,.T.);
#367=ORIENTED_EDGE('',*,*,#284,.T.);
#368=ORIENTED_EDGE('',*,*,#279,.F.);
#369=ORIENTED_EDGE('',*,*,#285,.F.);
#370=ORIENTED_EDGE('',*,*,#286,.T.);
#371=ORIENTED_EDGE('',*,*,#287,.T.);
#372=ORIENTED_EDGE('',*,*,#283,.F.);
#373=ORIENTED_EDGE('',*,*,#288,.F.);
#374=ORIENTED_EDGE('',*,*,#281,.F.);
#375=ORIENTED_EDGE('',*,*,#289,.T.);
#376=ORIENTED_EDGE('',*,*,#286,.F.);
#377=ORIENTED_EDGE('',*,*,#290,.F.);
#378=ORIENTED_EDGE('',*,*,#291,.T.);
#379=ORIENTED_EDGE('',*,*,#292,.T.);
#380=ORIENTED_EDGE('',*,*,#277,.F.);
#381=ORIENTED_EDGE('',*,*,#293,.F.);
#382=ORIENTED_EDGE('',*,*,#280,.F.);
#383=ORIENTED_EDGE('',*,*,#284,.F.);
#384=ORIENTED_EDGE('',*,*,#287,.F.);
#385=ORIENTED_EDGE('',*,*,#289,.F.);
#386=ORIENTED_EDGE('',*,*,#282,.T.);
#387=ORIENTED_EDGE('',*,*,#290,.T.);
#388=ORIENTED_EDGE('',*,*,#288,.T.);
#389=ORIENTED_EDGE('',*,*,#285,.T.);
#390=ORIENTED_EDGE('',*,*,#294,.T.);
#391=ORIENTED_EDGE('',*,*,#295,.T.);
#392=ORIENTED_EDGE('',*,*,#296,.T.);
#393=ORIENTED_EDGE('',*,*,#297,.T.);
#394=ORIENTED_EDGE('',*,*,#298,.T.);
#395=ORIENTED_EDGE('',*,*,#299,.T.);
#396=ORIENTED_EDGE('',*,*,#294,.F.);
#397=ORIENTED_EDGE('',*,*,#300,.T.);
#398=ORIENTED_EDGE('',*,*,#301,.T.);
#399=ORIENTED_EDGE('',*,*,#302,.T.);
#400=ORIENTED_EDGE('',*,*,#298,.F.);
#401=ORIENTED_EDGE('',*,*,#303,.T.);
#402=ORIENTED_EDGE('',*,*,#296,.F.);
#403=ORIENTED_EDGE('',*,*,#304,.T.);
#404=ORIENTED_EDGE('',*,*,#301,.F.);
#405=ORIENTED_EDGE('',*,*,#305,.T.);
#406=ORIENTED_EDGE('',*,*,#306,.T.);
#407=ORIENTED_EDGE('',*,*,#307,.T.);
#408=ORIENTED_EDGE('',*,*,#275,.F.);
#409=ORIENTED_EDGE('',*,*,#308,.F.);
#410=ORIENTED_EDGE('',*,*,#295,.F.);
#411=ORIENTED_EDGE('',*,*,#299,.F.);
#412=ORIENTED_EDGE('',*,*,#302,.F.);
#413=ORIENTED_EDGE('',*,*,#304,.F.);
#414=ORIENTED_EDGE('',*,*,#303,.F.);
#415=ORIENTED_EDGE('',*,*,#300,.F.);
#416=ORIENTED_EDGE('',*,*,#297,.F.);
#417=ORIENTED_EDGE('',*,*,#305,.F.);
#418=ORIENTED_EDGE('',*,*,#274,.F.);
#419=ORIENTED_EDGE('',*,*,#309,.T.);
#420=ORIENTED_EDGE('',*,*,#308,.T.);
#421=ORIENTED_EDGE('',*,*,#278,.F.);
#422=ORIENTED_EDGE('',*,*,#292,.F.);
#423=ORIENTED_EDGE('',*,*,#310,.T.);
#424=ORIENTED_EDGE('',*,*,#293,.T.);
#425=ORIENTED_EDGE('',*,*,#276,.F.);
#426=ORIENTED_EDGE('',*,*,#307,.F.);
#427=ORIENTED_EDGE('',*,*,#306,.F.);
#428=ORIENTED_EDGE('',*,*,#309,.F.);
#429=ORIENTED_EDGE('',*,*,#291,.F.);
#430=ORIENTED_EDGE('',*,*,#310,.F.);
#431=ORIENTED_EDGE('',*,*,#263,.T.);
#432=ORIENTED_EDGE('',*,*,#258,.T.);
#433=ORIENTED_EDGE('',*,*,#268,.T.);
#434=ORIENTED_EDGE('',*,*,#253,.T.);
#435=SPHERICAL_SURFACE('',#489,3.2);
#436=SPHERICAL_SURFACE('',#495,3.2);
#437=SPHERICAL_SURFACE('',#501,3.2);
#438=SPHERICAL_SURFACE('',#507,3.2);
#439=ADVANCED_FACE('',(#116),#435,.T.);
#440=ADVANCED_FACE('',(#117),#111,.T.);
#441=ADVANCED_FACE('',(#118),#436,.T.);
#442=ADVANCED_FACE('',(#119),#112,.T.);
#443=ADVANCED_FACE('',(#120),#437,.T.);
#444=ADVANCED_FACE('',(#121),#113,.T.);
#445=ADVANCED_FACE('',(#122),#438,.T.);
#446=ADVANCED_FACE('',(#123),#114,.T.);
#447=ADVANCED_FACE('',(#124),#38,.F.);
#448=ADVANCED_FACE('',(#125),#115,.F.);
#449=ADVANCED_FACE('',(#126,#18),#25,.T.);
#450=ADVANCED_FACE('',(#127),#26,.T.);
#451=ADVANCED_FACE('',(#128),#39,.F.);
#452=ADVANCED_FACE('',(#129),#27,.T.);
#453=ADVANCED_FACE('',(#130),#40,.F.);
#454=ADVANCED_FACE('',(#131,#19),#28,.T.);
#455=ADVANCED_FACE('',(#132),#29,.F.);
#456=ADVANCED_FACE('',(#133),#30,.T.);
#457=ADVANCED_FACE('',(#134),#41,.F.);
#458=ADVANCED_FACE('',(#135),#31,.T.);
#459=ADVANCED_FACE('',(#136),#42,.F.);
#460=ADVANCED_FACE('',(#137,#20),#32,.T.);
#461=ADVANCED_FACE('',(#138),#33,.T.);
#462=ADVANCED_FACE('',(#139),#34,.T.);
#463=ADVANCED_FACE('',(#140),#35,.T.);
#464=ADVANCED_FACE('',(#141),#36,.T.);
#465=ADVANCED_FACE('',(#142,#21,#22,#23,#24),#37,.F.);
#466=CLOSED_SHELL('',(#439,#440,#441,#442,#443,#444,#445,#446,#447,#448,
#449,#450,#451,#452,#453,#454,#455,#456,#457,#458,#459,#460,#461,#462,#463,
#464,#465));
#467=DERIVED_UNIT_ELEMENT(#470,1.);
#468=DERIVED_UNIT_ELEMENT(#830,-3.);
#469=DIMENSIONAL_EXPONENTS(0.,1.,0.,0.,0.,0.,0.);
#470=(
CONVERSION_BASED_UNIT('gram',#472)
MASS_UNIT()
NAMED_UNIT(#469)
);
#471=(
MASS_UNIT()
NAMED_UNIT(*)
SI_UNIT(.KILO.,.GRAM.)
);
#472=MASS_MEASURE_WITH_UNIT(MASS_MEASURE(0.001),#471);
#473=DERIVED_UNIT((#467,#468));
#474=MEASURE_REPRESENTATION_ITEM('density measure',
POSITIVE_RATIO_MEASURE(1.27),#473);
#475=PROPERTY_DEFINITION_REPRESENTATION(#480,#477);
#476=PROPERTY_DEFINITION_REPRESENTATION(#481,#478);
#477=REPRESENTATION('material name',(#479),#827);
#478=REPRESENTATION('density',(#474),#827);
#479=DESCRIPTIVE_REPRESENTATION_ITEM('Plastico PETG','Plastico PETG');
#480=PROPERTY_DEFINITION('material property','material name',#837);
#481=PROPERTY_DEFINITION('material property','density of part',#837);
#482=DATE_TIME_ROLE('creation_date');
#483=APPLIED_DATE_AND_TIME_ASSIGNMENT(#484,#482,(#837));
#484=DATE_AND_TIME(#485,#486);
#485=CALENDAR_DATE(2025,26,9);
#486=LOCAL_TIME(0,0,0.,#487);
#487=COORDINATED_UNIVERSAL_TIME_OFFSET(0,0,.BEHIND.);
#488=AXIS2_PLACEMENT_3D('',#690,#544,#545);
#489=AXIS2_PLACEMENT_3D('',#691,#546,#547);
#490=AXIS2_PLACEMENT_3D('',#694,#548,#549);
#491=AXIS2_PLACEMENT_3D('',#696,#550,#551);
#492=AXIS2_PLACEMENT_3D('',#697,#552,#553);
#493=AXIS2_PLACEMENT_3D('',#698,#554,#555);
#494=AXIS2_PLACEMENT_3D('',#701,#557,#558);
#495=AXIS2_PLACEMENT_3D('',#702,#559,#560);
#496=AXIS2_PLACEMENT_3D('',#705,#561,#562);
#497=AXIS2_PLACEMENT_3D('',#707,#563,#564);
#498=AXIS2_PLACEMENT_3D('',#708,#565,#566);
#499=AXIS2_PLACEMENT_3D('',#709,#567,#568);
#500=AXIS2_PLACEMENT_3D('',#712,#570,#571);
#501=AXIS2_PLACEMENT_3D('',#713,#572,#573);
#502=AXIS2_PLACEMENT_3D('',#716,#574,#575);
#503=AXIS2_PLACEMENT_3D('',#718,#576,#577);
#504=AXIS2_PLACEMENT_3D('',#719,#578,#579);
#505=AXIS2_PLACEMENT_3D('',#720,#580,#581);
#506=AXIS2_PLACEMENT_3D('',#723,#583,#584);
#507=AXIS2_PLACEMENT_3D('',#724,#585,#586);
#508=AXIS2_PLACEMENT_3D('',#727,#587,#588);
#509=AXIS2_PLACEMENT_3D('',#729,#589,#590);
#510=AXIS2_PLACEMENT_3D('',#730,#591,#592);
#511=AXIS2_PLACEMENT_3D('',#731,#593,#594);
#512=AXIS2_PLACEMENT_3D('',#734,#596,#597);
#513=AXIS2_PLACEMENT_3D('',#735,#598,#599);
#514=AXIS2_PLACEMENT_3D('',#737,#600,#601);
#515=AXIS2_PLACEMENT_3D('',#741,#603,#604);
#516=AXIS2_PLACEMENT_3D('',#742,#605,#606);
#517=AXIS2_PLACEMENT_3D('',#743,#607,#608);
#518=AXIS2_PLACEMENT_3D('',#746,#610,#611);
#519=AXIS2_PLACEMENT_3D('',#747,#612,#613);
#520=AXIS2_PLACEMENT_3D('',#756,#618,#619);
#521=AXIS2_PLACEMENT_3D('',#765,#624,#625);
#522=AXIS2_PLACEMENT_3D('',#769,#627,#628);
#523=AXIS2_PLACEMENT_3D('',#770,#629,#630);
#524=AXIS2_PLACEMENT_3D('',#771,#631,#632);
#525=AXIS2_PLACEMENT_3D('',#777,#636,#637);
#526=AXIS2_PLACEMENT_3D('',#778,#638,#639);
#527=AXIS2_PLACEMENT_3D('',#779,#640,#641);
#528=AXIS2_PLACEMENT_3D('',#780,#642,#643);
#529=AXIS2_PLACEMENT_3D('',#786,#647,#648);
#530=AXIS2_PLACEMENT_3D('',#787,#649,#650);
#531=AXIS2_PLACEMENT_3D('',#796,#655,#656);
#532=AXIS2_PLACEMENT_3D('',#800,#658,#659);
#533=AXIS2_PLACEMENT_3D('',#801,#660,#661);
#534=AXIS2_PLACEMENT_3D('',#802,#662,#663);
#535=AXIS2_PLACEMENT_3D('',#808,#667,#668);
#536=AXIS2_PLACEMENT_3D('',#809,#669,#670);
#537=AXIS2_PLACEMENT_3D('',#810,#671,#672);
#538=AXIS2_PLACEMENT_3D('',#811,#673,#674);
#539=AXIS2_PLACEMENT_3D('',#817,#678,#679);
#540=AXIS2_PLACEMENT_3D('',#818,#680,#681);
#541=AXIS2_PLACEMENT_3D('',#819,#682,#683);
#542=AXIS2_PLACEMENT_3D('',#821,#685,#686);
#543=AXIS2_PLACEMENT_3D('',#823,#688,#689);
#544=DIRECTION('axis',(0.,0.,1.));
#545=DIRECTION('refdir',(1.,0.,0.));
#546=DIRECTION('center_axis',(0.,1.,0.));
#547=DIRECTION('ref_axis',(0.,0.,-1.));
#548=DIRECTION('center_axis',(0.,-1.,0.));
#549=DIRECTION('ref_axis',(1.,0.,0.));
#550=DIRECTION('center_axis',(1.,0.,0.));
#551=DIRECTION('ref_axis',(0.,0.,1.));
#552=DIRECTION('center_axis',(0.,-1.,0.));
#553=DIRECTION('ref_axis',(1.,0.,0.));
#554=DIRECTION('center_axis',(0.,-1.,0.));
#555=DIRECTION('ref_axis',(1.,0.,0.));
#556=DIRECTION('',(0.,1.,0.));
#557=DIRECTION('center_axis',(0.,1.,0.));
#558=DIRECTION('ref_axis',(1.,0.,0.));
#559=DIRECTION('center_axis',(0.,1.,0.));
#560=DIRECTION('ref_axis',(0.,0.,-1.));
#561=DIRECTION('center_axis',(0.,-1.,0.));
#562=DIRECTION('ref_axis',(1.,0.,0.));
#563=DIRECTION('center_axis',(1.,0.,0.));
#564=DIRECTION('ref_axis',(0.,0.,1.));
#565=DIRECTION('center_axis',(0.,-1.,0.));
#566=DIRECTION('ref_axis',(1.,0.,0.));
#567=DIRECTION('center_axis',(0.,-1.,0.));
#568=DIRECTION('ref_axis',(1.,0.,0.));
#569=DIRECTION('',(0.,1.,0.));
#570=DIRECTION('center_axis',(0.,1.,0.));
#571=DIRECTION('ref_axis',(1.,0.,0.));
#572=DIRECTION('center_axis',(0.,1.,0.));
#573=DIRECTION('ref_axis',(0.,0.,-1.));
#574=DIRECTION('center_axis',(0.,-1.,0.));
#575=DIRECTION('ref_axis',(1.,0.,0.));
#576=DIRECTION('center_axis',(1.,0.,0.));
#577=DIRECTION('ref_axis',(0.,0.,1.));
#578=DIRECTION('center_axis',(0.,-1.,0.));
#579=DIRECTION('ref_axis',(1.,0.,0.));
#580=DIRECTION('center_axis',(0.,-1.,0.));
#581=DIRECTION('ref_axis',(1.,0.,0.));
#582=DIRECTION('',(0.,1.,0.));
#583=DIRECTION('center_axis',(0.,1.,0.));
#584=DIRECTION('ref_axis',(1.,0.,0.));
#585=DIRECTION('center_axis',(0.,1.,0.));
#586=DIRECTION('ref_axis',(0.,0.,-1.));
#587=DIRECTION('center_axis',(0.,-1.,0.));
#588=DIRECTION('ref_axis',(1.,0.,0.));
#589=DIRECTION('center_axis',(1.,0.,0.));
#590=DIRECTION('ref_axis',(0.,0.,1.));
#591=DIRECTION('center_axis',(0.,-1.,0.));
#592=DIRECTION('ref_axis',(1.,0.,0.));
#593=DIRECTION('center_axis',(0.,-1.,0.));
#594=DIRECTION('ref_axis',(1.,0.,0.));
#595=DIRECTION('',(0.,1.,0.));
#596=DIRECTION('center_axis',(0.,1.,0.));
#597=DIRECTION('ref_axis',(1.,0.,0.));
#598=DIRECTION('center_axis',(0.,1.,0.));
#599=DIRECTION('ref_axis',(-1.,0.,0.));
#600=DIRECTION('center_axis',(0.,1.,0.));
#601=DIRECTION('ref_axis',(-1.,0.,0.));
#602=DIRECTION('',(-0.707106781186547,-0.707106781186547,8.65956056235493E-17));
#603=DIRECTION('center_axis',(0.,-1.,0.));
#604=DIRECTION('ref_axis',(-1.,0.,0.));
#605=DIRECTION('center_axis',(0.,-1.,0.));
#606=DIRECTION('ref_axis',(-1.,0.,0.));
#607=DIRECTION('center_axis',(0.,-1.,0.));
#608=DIRECTION('ref_axis',(1.,0.,0.));
#609=DIRECTION('',(0.,-1.,0.));
#610=DIRECTION('center_axis',(0.,-1.,0.));
#611=DIRECTION('ref_axis',(1.,0.,0.));
#612=DIRECTION('center_axis',(0.,1.,0.));
#613=DIRECTION('ref_axis',(0.,0.,1.));
#614=DIRECTION('',(9.80329381567467E-17,0.,-1.));
#615=DIRECTION('',(-1.,0.,3.53855944103636E-16));
#616=DIRECTION('',(-8.32447919734087E-33,0.,1.));
#617=DIRECTION('',(1.,0.,2.76449956330963E-18));
#618=DIRECTION('center_axis',(-0.707106781186548,-0.707106781186547,-1.1805206456269E-16));
#619=DIRECTION('ref_axis',(-1.669508307707E-16,0.,1.));
#620=DIRECTION('',(-0.707106781186548,0.707106781186547,0.));
#621=DIRECTION('',(8.32447919734087E-33,1.669508307707E-16,-1.));
#622=DIRECTION('',(0.707106781186547,-0.707106781186548,0.));
#623=DIRECTION('',(9.80329381567467E-17,1.669508307707E-16,-1.));
#624=DIRECTION('center_axis',(-1.,0.,0.));
#625=DIRECTION('ref_axis',(0.,1.,0.));
#626=DIRECTION('',(-0.707106781186547,-0.707106781186547,-7.85046229341887E-16));
#627=DIRECTION('center_axis',(-1.,0.,-8.32447919734087E-33));
#628=DIRECTION('ref_axis',(0.,1.,0.));
#629=DIRECTION('center_axis',(-1.,0.,-9.80329381567467E-17));
#630=DIRECTION('ref_axis',(0.,1.,0.));
#631=DIRECTION('center_axis',(-0.707106781186548,0.707106781186548,1.1805206456269E-16));
#632=DIRECTION('ref_axis',(1.669508307707E-16,0.,1.));
#633=DIRECTION('',(-0.707106781186547,-0.707106781186548,0.));
#634=DIRECTION('',(-8.32447919734087E-33,-1.669508307707E-16,1.));
#635=DIRECTION('',(-9.80329381567467E-17,-1.669508307707E-16,1.));
#636=DIRECTION('center_axis',(-1.,0.,0.));
#637=DIRECTION('ref_axis',(0.,-1.,0.));
#638=DIRECTION('center_axis',(-1.,0.,-8.32447919734087E-33));
#639=DIRECTION('ref_axis',(0.,-1.,0.));
#640=DIRECTION('center_axis',(-1.,0.,-9.80329381567467E-17));
#641=DIRECTION('ref_axis',(0.,-1.,0.));
#642=DIRECTION('center_axis',(-1.,0.,-8.32447919734087E-33));
#643=DIRECTION('ref_axis',(-8.32447919734087E-33,0.,1.));
#644=DIRECTION('',(-8.32447919734087E-33,0.,1.));
#645=DIRECTION('',(0.,1.,0.));
#646=DIRECTION('',(0.,1.,0.));
#647=DIRECTION('center_axis',(1.,0.,9.80329381567467E-17));
#648=DIRECTION('ref_axis',(9.80329381567467E-17,0.,-1.));
#649=DIRECTION('center_axis',(0.707106781186547,0.707106781186548,1.87371819912967E-16));
#650=DIRECTION('ref_axis',(2.64983768927447E-16,0.,-1.));
#651=DIRECTION('',(0.707106781186548,-0.707106781186547,0.));
#652=DIRECTION('',(9.80329381567467E-17,1.669508307707E-16,-1.));
#653=DIRECTION('',(-0.707106781186547,0.707106781186548,0.));
#654=DIRECTION('',(-9.80329381567467E-17,-1.669508307707E-16,1.));
#655=DIRECTION('center_axis',(1.,0.,0.));
#656=DIRECTION('ref_axis',(0.,1.,0.));
#657=DIRECTION('',(0.707106781186548,0.707106781186547,0.));
#658=DIRECTION('center_axis',(1.,0.,9.80329381567467E-17));
#659=DIRECTION('ref_axis',(0.,1.,0.));
#660=DIRECTION('center_axis',(-1.,0.,-9.80329381567467E-17));
#661=DIRECTION('ref_axis',(0.,1.,0.));
#662=DIRECTION('center_axis',(0.707106781186548,-0.707106781186547,-4.87323092124127E-17));
#663=DIRECTION('ref_axis',(-6.89178926139534E-17,0.,-1.));
#664=DIRECTION('',(0.707106781186547,0.707106781186548,0.));
#665=DIRECTION('',(-9.80329381567467E-17,-1.669508307707E-16,1.));
#666=DIRECTION('',(9.80329381567467E-17,1.669508307707E-16,-1.));
#667=DIRECTION('center_axis',(1.,0.,0.));
#668=DIRECTION('ref_axis',(0.,-1.,0.));
#669=DIRECTION('center_axis',(1.,0.,9.80329381567467E-17));
#670=DIRECTION('ref_axis',(0.,-1.,0.));
#671=DIRECTION('center_axis',(-1.,0.,-9.80329381567467E-17));
#672=DIRECTION('ref_axis',(0.,-1.,0.));
#673=DIRECTION('center_axis',(1.,0.,9.80329381567467E-17));
#674=DIRECTION('ref_axis',(9.80329381567467E-17,0.,-1.));
#675=DIRECTION('',(9.80329381567467E-17,0.,-1.));
#676=DIRECTION('',(0.,1.,0.));
#677=DIRECTION('',(0.,1.,0.));
#678=DIRECTION('center_axis',(1.,0.,9.80329381567467E-17));
#679=DIRECTION('ref_axis',(9.80329381567467E-17,0.,-1.));
#680=DIRECTION('center_axis',(0.,1.,0.));
#681=DIRECTION('ref_axis',(0.,0.,1.));
#682=DIRECTION('center_axis',(-2.76449956330963E-18,0.,1.));
#683=DIRECTION('ref_axis',(1.,0.,2.76449956330963E-18));
#684=DIRECTION('',(1.,0.,2.76449956330963E-18));
#685=DIRECTION('center_axis',(-3.53855944103636E-16,0.,-1.));
#686=DIRECTION('ref_axis',(-1.,0.,3.53855944103636E-16));
#687=DIRECTION('',(-1.,0.,3.53855944103636E-16));
#688=DIRECTION('center_axis',(0.,1.,0.));
#689=DIRECTION('ref_axis',(0.,0.,1.));
#690=CARTESIAN_POINT('',(0.,0.,0.));
#691=CARTESIAN_POINT('Origin',(6.05,-1.,-83.4));
#692=CARTESIAN_POINT('',(2.84999999999999,-1.,-83.4));
#693=CARTESIAN_POINT('',(6.05,-1.,-80.2));
#694=CARTESIAN_POINT('Origin',(6.05,-1.,-83.4));
#695=CARTESIAN_POINT('',(6.05,-4.2,-83.4));
#696=CARTESIAN_POINT('Origin',(6.05,-1.,-83.4));
#697=CARTESIAN_POINT('Origin',(6.05,-1.,-83.4));
#698=CARTESIAN_POINT('Origin',(6.05,0.,-83.4));
#699=CARTESIAN_POINT('',(2.84999999999999,0.,-83.4));
#700=CARTESIAN_POINT('',(2.84999999999999,0.,-83.4));
#701=CARTESIAN_POINT('Origin',(6.05,0.,-83.4));
#702=CARTESIAN_POINT('Origin',(44.15,-1.,-83.4));
#703=CARTESIAN_POINT('',(40.95,-1.,-83.4));
#704=CARTESIAN_POINT('',(44.15,-1.,-80.2));
#705=CARTESIAN_POINT('Origin',(44.15,-1.,-83.4));
#706=CARTESIAN_POINT('',(44.15,-4.2,-83.4));
#707=CARTESIAN_POINT('Origin',(44.15,-1.,-83.4));
#708=CARTESIAN_POINT('Origin',(44.15,-1.,-83.4));
#709=CARTESIAN_POINT('Origin',(44.15,0.,-83.4));
#710=CARTESIAN_POINT('',(40.95,0.,-83.4));
#711=CARTESIAN_POINT('',(40.95,0.,-83.4));
#712=CARTESIAN_POINT('Origin',(44.15,0.,-83.4));
#713=CARTESIAN_POINT('Origin',(6.05,-1.,-7.2));
#714=CARTESIAN_POINT('',(2.84999999999999,-1.,-7.2));
#715=CARTESIAN_POINT('',(6.05,-1.,-4.));
#716=CARTESIAN_POINT('Origin',(6.05,-1.,-7.2));
#717=CARTESIAN_POINT('',(6.05,-4.2,-7.2));
#718=CARTESIAN_POINT('Origin',(6.05,-1.,-7.2));
#719=CARTESIAN_POINT('Origin',(6.05,-1.,-7.2));
#720=CARTESIAN_POINT('Origin',(6.05,0.,-7.2));
#721=CARTESIAN_POINT('',(2.84999999999999,0.,-7.2));
#722=CARTESIAN_POINT('',(2.84999999999999,0.,-7.2));
#723=CARTESIAN_POINT('Origin',(6.05,0.,-7.2));
#724=CARTESIAN_POINT('Origin',(44.15,-1.,-7.2));
#725=CARTESIAN_POINT('',(40.95,-1.,-7.2));
#726=CARTESIAN_POINT('',(44.15,-1.,-3.99999999999999));
#727=CARTESIAN_POINT('Origin',(44.15,-1.,-7.2));
#728=CARTESIAN_POINT('',(44.15,-4.2,-7.2));
#729=CARTESIAN_POINT('Origin',(44.15,-1.,-7.2));
#730=CARTESIAN_POINT('Origin',(44.15,-1.,-7.2));
#731=CARTESIAN_POINT('Origin',(44.15,0.,-7.2));
#732=CARTESIAN_POINT('',(40.95,0.,-7.2));
#733=CARTESIAN_POINT('',(40.95,0.,-7.2));
#734=CARTESIAN_POINT('Origin',(44.15,0.,-7.2));
#735=CARTESIAN_POINT('Origin',(25.1,19.45,-45.3));
#736=CARTESIAN_POINT('',(46.1,20.7,-45.3));
#737=CARTESIAN_POINT('Origin',(25.1,20.7,-45.3));
#738=CARTESIAN_POINT('',(43.6,18.2,-45.3));
#739=CARTESIAN_POINT('',(44.85,19.45,-45.3));
#740=CARTESIAN_POINT('',(6.59999999999999,18.2,-45.3));
#741=CARTESIAN_POINT('Origin',(25.1,18.2,-45.3));
#742=CARTESIAN_POINT('Origin',(25.1,18.2,-45.3));
#743=CARTESIAN_POINT('Origin',(25.1,20.7,-45.3));
#744=CARTESIAN_POINT('',(6.59999999999999,5.7,-45.3));
#745=CARTESIAN_POINT('',(6.59999999999999,20.7,-45.3));
#746=CARTESIAN_POINT('Origin',(25.1,5.7,-45.3));
#747=CARTESIAN_POINT('Origin',(25.1,20.7,-45.3));
#748=CARTESIAN_POINT('',(50.2,20.7,1.38777878078144E-16));
#749=CARTESIAN_POINT('',(50.2,20.7,-90.6));
#750=CARTESIAN_POINT('',(50.2,20.7,1.38777878078144E-16));
#751=CARTESIAN_POINT('',(0.,20.7,-90.6));
#752=CARTESIAN_POINT('',(50.2,20.7,-90.6));
#753=CARTESIAN_POINT('',(0.,20.7,0.));
#754=CARTESIAN_POINT('',(7.54197815279083E-31,20.7,-90.6));
#755=CARTESIAN_POINT('',(0.,20.7,0.));
#756=CARTESIAN_POINT('Origin',(2.,13.85,-64.625));
#757=CARTESIAN_POINT('',(4.,11.85,-38.65));
#758=CARTESIAN_POINT('',(-2.16228347150929E-31,15.85,-38.65));
#759=CARTESIAN_POINT('',(4.,11.85,-38.65));
#760=CARTESIAN_POINT('',(-1.05512773826296E-31,15.85,-51.95));
#761=CARTESIAN_POINT('',(0.,15.85,-64.625));
#762=CARTESIAN_POINT('',(3.99999999999999,11.85,-51.95));
#763=CARTESIAN_POINT('',(-1.05512773826296E-31,15.85,-51.95));
#764=CARTESIAN_POINT('',(3.99999999999999,11.85,-51.95));
#765=CARTESIAN_POINT('Origin',(1.99999999999999,10.35,-38.65));
#766=CARTESIAN_POINT('',(4.,8.85,-38.65));
#767=CARTESIAN_POINT('',(-5.60700074197572E-48,4.85,-38.65));
#768=CARTESIAN_POINT('',(4.,8.85,-38.65));
#769=CARTESIAN_POINT('Origin',(0.,10.35,-38.65));
#770=CARTESIAN_POINT('Origin',(4.,10.35,-38.65));
#771=CARTESIAN_POINT('Origin',(2.,6.85,-71.275));
#772=CARTESIAN_POINT('',(3.99999999999999,8.85,-51.95));
#773=CARTESIAN_POINT('',(-1.60870560488612E-31,4.85,-51.95));
#774=CARTESIAN_POINT('',(3.99999999999999,8.85,-51.95));
#775=CARTESIAN_POINT('',(0.,4.85,-71.275));
#776=CARTESIAN_POINT('',(4.,8.85,-38.65));
#777=CARTESIAN_POINT('Origin',(1.99999999999999,10.35,-51.95));
#778=CARTESIAN_POINT('Origin',(0.,10.35,-51.95));
#779=CARTESIAN_POINT('Origin',(3.99999999999999,10.35,-51.95));
#780=CARTESIAN_POINT('Origin',(7.54197815279083E-31,0.,-90.6));
#781=CARTESIAN_POINT('',(7.54197815279083E-31,0.,-90.6));
#782=CARTESIAN_POINT('',(0.,0.,0.));
#783=CARTESIAN_POINT('',(7.54197815279083E-31,0.,-90.6));
#784=CARTESIAN_POINT('',(0.,0.,0.));
#785=CARTESIAN_POINT('',(7.54197815279083E-31,0.,-90.6));
#786=CARTESIAN_POINT('Origin',(3.99999999999999,10.35,-45.3));
#787=CARTESIAN_POINT('Origin',(48.2,6.85,-25.975));
#788=CARTESIAN_POINT('',(46.2,8.85,-38.65));
#789=CARTESIAN_POINT('',(50.2,4.85,-38.65));
#790=CARTESIAN_POINT('',(46.2,8.85,-38.65));
#791=CARTESIAN_POINT('',(50.2,4.85,-51.95));
#792=CARTESIAN_POINT('',(50.2,4.85,-25.975));
#793=CARTESIAN_POINT('',(46.2,8.85,-51.95));
#794=CARTESIAN_POINT('',(50.2,4.85,-51.95));
#795=CARTESIAN_POINT('',(46.2,8.85,-38.65));
#796=CARTESIAN_POINT('Origin',(48.2,10.35,-38.65));
#797=CARTESIAN_POINT('',(46.2,11.85,-38.65));
#798=CARTESIAN_POINT('',(50.2,15.85,-38.65));
#799=CARTESIAN_POINT('',(46.2,11.85,-38.65));
#800=CARTESIAN_POINT('Origin',(50.2,10.35,-38.65));
#801=CARTESIAN_POINT('Origin',(46.2,10.35,-38.65));
#802=CARTESIAN_POINT('Origin',(48.2,13.85,-19.325));
#803=CARTESIAN_POINT('',(46.2,11.85,-51.95));
#804=CARTESIAN_POINT('',(50.2,15.85,-51.95));
#805=CARTESIAN_POINT('',(46.2,11.85,-51.95));
#806=CARTESIAN_POINT('',(50.2,15.85,-19.325));
#807=CARTESIAN_POINT('',(46.2,11.85,-51.95));
#808=CARTESIAN_POINT('Origin',(48.2,10.35,-51.95));
#809=CARTESIAN_POINT('Origin',(50.2,10.35,-51.95));
#810=CARTESIAN_POINT('Origin',(46.2,10.35,-51.95));
#811=CARTESIAN_POINT('Origin',(50.2,0.,1.38777878078144E-16));
#812=CARTESIAN_POINT('',(50.2,0.,1.38777878078144E-16));
#813=CARTESIAN_POINT('',(50.2,0.,-90.6));
#814=CARTESIAN_POINT('',(50.2,0.,1.38777878078144E-16));
#815=CARTESIAN_POINT('',(50.2,0.,-90.6));
#816=CARTESIAN_POINT('',(50.2,0.,1.38777878078144E-16));
#817=CARTESIAN_POINT('Origin',(46.2,10.35,-45.3));
#818=CARTESIAN_POINT('Origin',(25.1,5.7,-45.3));
#819=CARTESIAN_POINT('Origin',(0.,0.,0.));
#820=CARTESIAN_POINT('',(0.,0.,0.));
#821=CARTESIAN_POINT('Origin',(50.2,0.,-90.6));
#822=CARTESIAN_POINT('',(50.2,0.,-90.6));
#823=CARTESIAN_POINT('Origin',(25.1,0.,-45.3));
#824=CARTESIAN_POINT('',(50.2,0.,4.92125349546868E-15));
#825=UNCERTAINTY_MEASURE_WITH_UNIT(LENGTH_MEASURE(0.01),#829,
'DISTANCE_ACCURACY_VALUE',
'Maximum model space distance between geometric entities at asserted c
onnectivities');
#826=UNCERTAINTY_MEASURE_WITH_UNIT(LENGTH_MEASURE(0.01),#829,
'DISTANCE_ACCURACY_VALUE',
'Maximum model space distance between geometric entities at asserted c
onnectivities');
#827=(
GEOMETRIC_REPRESENTATION_CONTEXT(3)
GLOBAL_UNCERTAINTY_ASSIGNED_CONTEXT((#825))
GLOBAL_UNIT_ASSIGNED_CONTEXT((#829,#831,#832))
REPRESENTATION_CONTEXT('','3D')
);
#828=(
GEOMETRIC_REPRESENTATION_CONTEXT(3)
GLOBAL_UNCERTAINTY_ASSIGNED_CONTEXT((#826))
GLOBAL_UNIT_ASSIGNED_CONTEXT((#829,#831,#832))
REPRESENTATION_CONTEXT('','3D')
);
#829=(
LENGTH_UNIT()
NAMED_UNIT(*)
SI_UNIT(.MILLI.,.METRE.)
);
#830=(
LENGTH_UNIT()
NAMED_UNIT(*)
SI_UNIT(.CENTI.,.METRE.)
);
#831=(
NAMED_UNIT(*)
PLANE_ANGLE_UNIT()
SI_UNIT($,.RADIAN.)
);
#832=(
NAMED_UNIT(*)
SI_UNIT($,.STERADIAN.)
SOLID_ANGLE_UNIT()
);
#833=SHAPE_DEFINITION_REPRESENTATION(#834,#835);
#834=PRODUCT_DEFINITION_SHAPE('',$,#837);
#835=SHAPE_REPRESENTATION('',(#488),#827);
#836=PRODUCT_DEFINITION_CONTEXT('part definition',#841,'design');
#837=PRODUCT_DEFINITION('Pieza1','Pieza Central',#838,#836);
#838=PRODUCT_DEFINITION_FORMATION('',$,#843);
#839=PRODUCT_RELATED_PRODUCT_CATEGORY('Pieza Central','Pieza Central',(#843));
#840=APPLICATION_PROTOCOL_DEFINITION('international standard',
'automotive_design',2009,#841);
#841=APPLICATION_CONTEXT(
'Core Data for Automotive Mechanical Design Process');
#842=PRODUCT_CONTEXT('part definition',#841,'mechanical');
#843=PRODUCT('Pieza1','Pieza Central',$,(#842));
#844=PRESENTATION_STYLE_ASSIGNMENT((#846));
#845=PRESENTATION_STYLE_ASSIGNMENT((#847));
#846=SURFACE_STYLE_USAGE(.BOTH.,#850);
#847=SURFACE_STYLE_USAGE(.BOTH.,#851);
#848=SURFACE_STYLE_RENDERING_WITH_PROPERTIES($,#858,(#849));
#849=SURFACE_STYLE_TRANSPARENT(0.);
#850=SURFACE_SIDE_STYLE('',(#852,#848));
#851=SURFACE_SIDE_STYLE('',(#853));
#852=SURFACE_STYLE_FILL_AREA(#854);
#853=SURFACE_STYLE_FILL_AREA(#855);
#854=FILL_AREA_STYLE('',(#856));
#855=FILL_AREA_STYLE('',(#857));
#856=FILL_AREA_STYLE_COLOUR('',#858);
#857=FILL_AREA_STYLE_COLOUR('',#859);
#858=COLOUR_RGB('',0.313725490196078,0.313725490196078,0.313725490196078);
#859=COLOUR_RGB('',1.,1.,0.);
ENDSEC;
END-ISO-10303-21;
